<?xml version="1.0" encoding="utf-8"?>
<!-- Generator: Adobe Illustrator 18.1.1, SVG Export Plug-In . SVG Version: 6.00 Build 0)  -->
<svg version="1.0" id="Layer_1" xmlns="http://www.w3.org/2000/svg" xmlns:xlink="http://www.w3.org/1999/xlink" x="0px" y="0px"
	 viewBox="0 0 612 792" enable-background="new 0 0 612 792" xml:space="preserve">
<path fill="#FFFFFF" d="M369.4,396c115.8-115.8,222.9-222.9,227.3-227.3c8.7-8.7,13.1-21.9,15.3-32.8c2.2-13.1-2.2-26.2-10.9-35
	c-8.7-8.7-21.9-13.1-35-10.9c-13.1,0-24,6.6-32.8,15.3C531.1,107.5,424,214.6,306,332.6C190.2,216.8,83.1,109.7,78.7,105.3
	C69.9,96.6,56.8,92.2,45.9,90c-13.1,0-26.2,4.4-32.8,13.1S0,122.8,0,135.9s6.6,24,15.3,32.8C17.5,170.9,124.6,278,242.6,396
	C126.8,511.8,19.7,618.9,15.3,623.3C6.6,632.1,2.2,645.2,0,656.1c-2.2,13.1,2.2,26.2,10.9,35c8.7,8.7,21.9,13.1,35,10.9
	c13.1,0,24-6.6,32.8-15.3C80.9,684.5,188,577.4,306,459.4c115.8,115.8,222.9,222.9,227.3,227.3c8.7,8.7,21.9,13.1,32.8,15.3
	c13.1,2.2,26.2-2.2,35-10.9c8.7-8.7,13.1-21.9,10.9-35c0-13.1-6.6-24-15.3-32.8C592.3,618.9,485.2,511.8,369.4,396z"/>
</svg>
