<?xml version="1.0" standalone="no"?>
<!DOCTYPE svg PUBLIC "-//W3C//DTD SVG 1.1//EN" "http://www.w3.org/Graphics/SVG/1.1/DTD/svg11.dtd" >
<svg xmlns="http://www.w3.org/2000/svg">
<metadata>
Created by FontPrep 20130207 at Mon Dec 22 18:29:16 2014
 By elia
(c)1993 Jens Gehlhaar GagaFonts
</metadata>
<defs>
<font id="6e081dd6ff6f56763cfcc88f09d31585" horiz-adv-x='1024' >
  <font-face 
    font-family="GagamondBold"
    font-weight="700"
    font-stretch="normal"
    units-per-em="2048"
    panose-1="2 0 8 3 0 0 0 0 0 0"
    ascent="1638"
    descent="-410"
    x-height="950"
    cap-height="1370"
    bbox="-115.485 -436 2380 1751.04"
    underline-thickness="159"
    underline-position="-205"
    unicode-range="U+001C-20AC"
  />
<missing-glyph horiz-adv-x="1024" 
d="M205 102h614v887h-614v-887zM102 0v1092h820v-1092h-820z" />
    <glyph glyph-name=".notdef" horiz-adv-x="1024" 
d="M205 102h614v887h-614v-887zM102 0v1092h820v-1092h-820z" />
    <glyph glyph-name=".null" horiz-adv-x="0" 
 />
    <glyph glyph-name="nonmarkingreturn" horiz-adv-x="681" 
 />
    <glyph glyph-name="uni001C" 
d="M840 774q78 0 100 -12t21 -57q1 -45 -19 -57t-102 -13h-674q-74 0 -96 12t-21 57q-1 46 19 58t98 12h674z" />
    <glyph glyph-name="uni001D" 
d="M909 467q0 -29 -44 -66t-78 -37t-82 42l-201 165l-203 -165q-49 -41 -82 -41q-33 -1 -78 33t-45 66t47 73l201 165l-201 170q-47 41 -47 68t43 68q45 34 79 34t83 -38l203 -168l201 168q49 38 87 38t77 -36q40 -36 40 -65q0 -28 -47 -69l-200 -170l200 -165
q47 -41 47 -70z" />
    <glyph glyph-name="space" unicode=" " horiz-adv-x="442" 
 />
    <glyph glyph-name="exclam" unicode="!" horiz-adv-x="471" 
d="M362 102q0 -70 -17 -85t-101 -15h-23q-58 7 -80 16q-35 15 -37 84v33q0 41 34 66t69 28l35 7q84 0 102 -16t18 -85v-33zM322 807l14 -80l2 -178q2 -66 -18 -84q-20 -19 -92 -19t-92 16t-23 85q-14 537 -31 713q-8 59 154 104q72 31 106 1t29 -81l-2 -24
q-43 -276 -47 -453z" />
    <glyph glyph-name="quotedbl" unicode="&#x22;" 
d="M649 948q0 94 -34 188q-33 94 -107 93q-74 0 -137 -41t-70 -115q-2 -33 -14 -51t-60 -51l-22 -17q-57 -37 -95 -2t-38 88q0 162 111 252q112 90 311 90t304 -95t105 -275q0 -109 -37 -193q-65 -147 -430 -538q-4 -3 -45 -13t-45 -39q22 -43 412 0l55 7q75 4 101 -25
t26 -100l-20 -4q-3 -36 -14 -50t-89 -18l-631 -35q-18 -2 -30 -2l-41 2q-25 0 -39 66q-4 18 -6 24t-4 14t-7 25q-3 18 13 41t7 22l-9 -1q6 12 157 200q1 2 97 74t178 168q82 97 114 157t33 154z" />
    <glyph glyph-name="numbersign" unicode="#" horiz-adv-x="1435" 
d="M961 907q1 1 -19 9t-24 10l4 -54q39 33 39 35zM1116 1171q-10 0 -30 -16t-21 -20q-4 -29 -4 -158q0 -180 72 -180l24 -2h13q18 0 18 8l8 102l-6 84q0 32 -19 146q-1 12 -23 24t-32 12zM1362 86q0 -28 -43 -58t-72 -30q-133 0 -133 135q0 35 48 65q85 53 147 5
q31 -25 31 -43t10 -41q12 -23 12 -33zM866 1280h21q33 0 61 -38t58 -30q43 43 118 43q172 0 219 -102q23 -57 23 -179t-20 -173q-51 -106 -209 -107q-94 0 -142 23v-144l-4 -286v-146q0 -66 -16 -79t-92 -13h-133q-61 0 -80 10t-35 60l-252 751q-15 41 -18 62q-1 20 -3 25
t-1 9t0 8q-1 3 -1 5q-2 2 -4 2h-6q-24 0 -16 -53q8 -584 -4 -846q-6 -55 -129 -33q-72 -4 -89 11t-18 81l4 1043q0 68 18 85t93 11l104 -10q66 -8 128 -36t77 -71l213 -694q2 -4 2 -10t15 -53t17 -59q1 -11 4 -19t2 -14t1 -8q2 -3 1 -5t5 -2h13q10 2 14 2q48 5 -9 573
q-13 129 -26 220l-10 90q0 66 17 81t89 15z" />
    <glyph glyph-name="dollar" unicode="$" 
d="M920 1036q0 -74 -84 -72q-36 1 -54 -2q-19 -3 -53 17q-60 35 -74 123q-4 39 -50 83q-45 44 -105 44t-99 -53q-39 -54 -39 -122t44 -106t221 -122t245 -164t68 -218q0 -66 -46 -120t-102 -82q-167 -87 -196 -129q-9 -13 2 -35l2 -10q0 -61 -18 -84t-68 -23t-69 23t-19 84
q3 5 5 23q3 17 -2 25t-64 40q-59 30 -123 66t-116 101t-52 135t39 106q39 38 86 7q41 25 88 5t51 -162q4 -66 51 -119t123 -53t122 60t46 143t-47 150t-225 149t-222 118q-78 76 -82 193q0 123 126 219t208 96q12 0 -12 27q0 71 18 93t70 22t70 -22t18 -93l-22 -19
q0 -6 2 -8q166 -74 252 -154t86 -180z" />
    <glyph glyph-name="percent" unicode="%" horiz-adv-x="1372" 
d="M354 1112q0 170 -43 170q-63 0 -65 -27q-43 -521 35 -524q55 -4 57 25l16 282v74zM1071 639q-69 0 -101 -57q-53 -95 -5 -301q18 -81 40 -139t31 -58q18 0 49 30t33 48q33 477 -47 477zM293 612q-88 0 -155 39t-87 103l-8 424q2 98 69 153t166 55q98 0 166 -34t82 -86
q35 -160 22 -346t-46 -224q-68 -84 -209 -84zM1124 1300q0 -24 -26 -67l-686 -1145q-23 -40 -44 -49q-4 -2 -20 1t-24 3q-90 0 -91 51q0 18 29 62l463 714q4 4 17 58t42 108t88 139q60 85 106 138t56 53q35 0 63 -21q27 -21 27 -45zM1064 756q72 0 136 -34q63 -34 88 -89
q14 -528 -22 -570q-68 -84 -209 -83q-86 0 -154 38t-88 103q-18 79 -12 269t28 272q13 38 87 66t146 28z" />
    <glyph glyph-name="ampersand" unicode="&#x26;" horiz-adv-x="1167" 
d="M532 135q6 0 60 -5t67 9q59 47 83 155t13 200t-42 114q-30 13 -82 2l-21 -6q-96 0 -138 -7t-75 -34q-74 -59 -73 -162q0 -266 208 -266zM1135 723v-27q0 -59 -23 -75t-100 -17q-10 5 -34 7q-26 3 -36 -5t7 -98t33 -183t-13 -169q-2 -37 -27 -73t-38 -45q-13 -8 -48 -22
t-74 -21t-141 -7q-274 0 -399 63q-90 41 -143 131q-52 90 -52 205q0 63 45 119t98 86q53 31 98 63q44 33 44 58t-60 65q-178 119 -180 234q0 221 154 311q52 27 92 29t110 2h107q10 0 33 12t74 12q52 0 78 -15t26 -65v-38q0 -32 -41 -38q-17 -3 -35 -4q-18 0 -38 -2t-27 -2
q-51 -20 -120 -25t-93 -19q-44 -24 -49 -149q-10 -253 260 -253q71 -24 77 -8q10 12 10 37q-1 25 -5 47l-7 24q0 74 18 92t101 19h23q82 0 99 -18t17 -93q-24 -48 -24 -75t6 -31q18 -9 66 6l77 2q35 0 45 -10t9 -37z" />
    <glyph glyph-name="quotesingle" unicode="'" horiz-adv-x="1628" 
d="M772 254q-95 -40 -205 -6q14 -78 47 -98l-4 20q2 0 22 -18t36 -17q90 6 104 119zM788 442q12 0 14 2t-28 17l-4 82l25 14h-56q-33 0 -37 6q-4 5 -8 15t-6 22t-4 26t-9 25q-7 13 -11 13t-20 3t-17 -10q-1 -2 -13 -27t-12 -52l4 -86q6 -117 29 -153q22 -36 43 -38
q27 -2 35 107q2 18 5 26q2 8 42 8h28zM1032 598v-104l15 -379q2 -39 -33 -67t-70 -36l-35 -6q-51 0 -64 43t-53 51t-88 -53t-92 -61q-166 -6 -250 102q-59 74 -59 217v33l-80 35q4 274 -12 389q0 6 8 47t-6 51l-43 27l-82 -4h-19q-15 0 -17 18q-1 8 -1 29t2 33t5 19
q4 7 16 10t20 4t35 2t51 1q24 -1 38 5q15 6 15 30t-8 47l-8 23q35 197 51 233q31 63 121 74q31 4 101 4t138 -39q66 -39 66 -87q0 -47 -19 -71t-54 -1l-138 88q-14 11 -22 -5t-8 -42t6 -113q-2 -4 -5 -13q-2 -9 -10 -31q-28 -82 15 -97q10 -5 49 -5l10 2q74 -4 98 -20
q24 -17 23 -61q0 -44 -37 -53t-74 1l-34 11l-11 -215q2 2 18 15q15 13 19 21q20 38 50 50t90 12t102 -19l-4 127q-4 70 14 86t98 19l25 2q80 2 99 -13t22 -85l2 -37q12 -29 12 -51q2 -129 2 -193zM1542 143v-32q0 -72 -18 -87t-101 -16h-22q-62 8 -83 18q-38 19 -34 85l4 43
l-28 2q-49 0 -57 16q-1 2 -6 9t-5 9l-6 25q-15 63 -25 78l-123 246l140 295q4 8 6 10h4q6 14 44 20t46 8q47 0 49 19q0 16 -20 43q-2 35 -1 174t-2 171q-2 31 20 53t42 29t51 15q69 31 105 1t30 -83l-2 -22q-43 -279 -47 -455q0 -10 6 -39t7 -41l8 -205q2 -63 -20 -82
q-22 -20 -94 -20t-78 6q-7 6 -9 74q-16 113 -23 254q-20 -29 -57 -104q-37 -76 -44 -104t36 -94t90 -118l47 -51q18 -33 14 -60l35 -4q93 0 107 -10t14 -76zM1036 1107q0 -9 -32 11q10 16 12 17q20 -19 20 -28zM189 639q-1 -1 -3 -2l-49 -59l17 47l26 53l4 -31l2 4zM189 639
q5 4 1 -6z" />
    <glyph glyph-name="parenleft" unicode="(" horiz-adv-x="610" 
d="M360 1370q38 0 27 -129q-2 -23 -2 -34t-37 -56q-45 -144 -48 -317q-1 -55 1 -168t2 -198t39 -254q39 -168 78 -294t39 -151q0 -72 -99 -72q-41 0 -60 12t-42 60l4 -2q14 -21 8 7t-39 111q-168 457 -168 654q0 98 33 255t82 283l25 70q29 80 43 115t21 53t12 22q6 4 8 6
q23 27 73 27z" />
    <glyph glyph-name="parenright" unicode=")" horiz-adv-x="610" 
d="M526 551q6 -115 -70 -340t-153 -358q-29 -53 -59 -68q-31 -14 -49 1q-57 47 29 397q62 253 59 356q1 39 -31 144t-49 176t-19 77t-14 20t-14 23q-55 213 -52 313q0 76 93 76q41 2 61 -11t41 -57q217 -466 227 -749z" />
    <glyph glyph-name="asterisk" unicode="*" horiz-adv-x="878" 
d="M707 1042q33 0 61 -34t29 -60q1 -28 -11 -38t-34 -24q-22 -12 -31 -20q-10 -8 -37 -20t-35 -35q-15 -20 23 -74q4 -9 17 -31t13 -38q0 -33 -46 -60t-68 -26t-56 25t-36 24l8 -334q6 -164 -41 -248t-184 -84l-55 -2q-9 0 -16 -3t-11 0q-5 3 -9 0t-4 14l-2 36q0 68 115 80
q45 4 70 72t22 133q-8 178 -10 350q-19 -13 -32 -18t-35 -25t-50 -20q-27 0 -63 24q-49 29 -49 62t32 74q32 40 31 44v29q-6 17 -42 29t-45 19t-44 27t-35 46q2 43 32 75t62 31l54 -10q92 -7 113 62q10 29 18 40q8 10 19 36t25 38t50 12q35 0 53 -10q17 -10 31 -36t24 -39
q10 -11 20 -47t34 -46q37 -22 100 -5q18 5 25 5z" />
    <glyph glyph-name="plus" unicode="+" 
d="M965 553q0 -67 -33 -91t-111 -20l-94 39q-99 33 -109 -9q-21 -94 -16 -218v-45q-6 -68 -18 -83t-80 -15t-85 15t-26 83q10 219 -14 276q-21 14 -150 -22l-51 -12q-78 -2 -102 15q-24 16 -23 74q-1 58 19 71t104 26q209 -66 209 4l-8 233q6 60 24 78t88 18q69 0 89 -16
q20 -18 20 -84q-10 -190 18 -249q6 -13 58 -15t102 4l49 4q50 -5 89 -9t45 -19t6 -33z" />
    <glyph glyph-name="comma" unicode="," horiz-adv-x="442" 
d="M109 -244h-3q-92 0 -92 64q0 2 60 28t59 41l2 142q1 61 21 75t102 15l-29 -4q117 0 117 -62q0 -1 8 -23t2 -36q-14 -84 -49 -131q-94 -109 -198 -109z" />
    <glyph glyph-name="hyphen" unicode="-" horiz-adv-x="399" 
d="M389 539q9 -64 -34 -80q-22 -8 -58 -8l-248 -7q-90 0 -65 91q-18 41 12 56q31 15 113 17q121 -2 180 2q92 9 100 -71z" />
    <glyph glyph-name="period" unicode="." horiz-adv-x="442" 
d="M221 2h-20q-82 0 -101 12q-18 12 -18 68v24q0 56 18 68t101 12h20q79 0 87 -16q26 -52 19 -116q-3 -28 -27 -40t-79 -12z" />
    <glyph glyph-name="slash" unicode="/" horiz-adv-x="1050" 
d="M1032 1302q0 -24 -24 -69l-807 -1393q-13 -20 -107 -53l-28 -10q-39 -11 -68 13t-29 56q-1 6 17 18t36 45q87 169 217 376q131 207 207 300t106 148t97 206q68 151 109 257l41 104q32 58 72 64q13 2 51 4h22q39 0 64 -21q24 -21 24 -45z" />
    <glyph glyph-name="zero" unicode="0" 
d="M500 1262q-61 0 -83 -42t-36 -130q-8 -29 -12 -243t16 -503l6 -90q17 -37 27 -54t36 -40t60 -23q34 1 60 15q40 24 58 111q5 30 11 81l6 602q2 182 -24 249q-27 67 -125 67zM504 1425q174 0 272 -57t135 -178q35 -92 -12 -928q-8 -173 -139 -231q-102 -45 -262 -45
t-252 51t-127 168q-25 66 -13 919q4 301 398 301zM844 1438h-25v16l-8 4q8 4 33 12v-32z" />
    <glyph glyph-name="one" unicode="1" 
d="M561 1368h35q82 0 100 -16t18 -66t-4 -100q-41 -695 -1 -996q4 -18 98 -15t96 -1q20 -84 4 -113q-4 -74 -313 -65l-318 10q-12 0 -23 -2t-19 -3t-17 -2q-10 -1 -15 13t-4 54t9 55q20 33 69 41q158 -12 168 41q27 160 33 385t-3 379t-23 149q-49 18 -49 89t2 83
q4 12 18 22t38 30q24 22 34 25t67 3z" />
    <glyph glyph-name="two" unicode="2" 
d="M940 102q0 -70 -18 -85t-103 -15h-504q-171 0 -183 2t-18 1q-4 -1 -12 6t-9 7t-7 14t-10 34t-14 50t1 40q22 37 20 42q-3 5 -5 8t-2 6q0 25 160 224q6 8 77 82q72 74 111 120t78 90t53 62q58 73 72 108q14 36 14 107q0 72 -44 163q-44 92 -114 92q-71 0 -109 -67
t-44 -161q0 -10 1 -34t-1 -32t-22 -16t-58 -6l-68 4q-68 4 -90 26t-20 66q0 160 111 251q112 91 311 91t304 -96t105 -274q0 -109 -37 -193t-139 -211q-143 -170 -291 -327q-6 -7 -32 -23q-62 -40 -66 -76q8 -4 42 3t93 10l342 24q80 13 103 -11t22 -99v-7z" />
    <glyph glyph-name="three" unicode="3" 
d="M473 -12q-211 0 -319 94t-103 264q0 41 25 57t92 17h37q71 0 93 -16t23 -44t0 -55t3 -52t12 -31q8 -7 26 -24t94 -49q75 -32 137 47t66 183q12 166 -94 215q-23 10 -93 14t-87 24q-18 20 -16 51q2 30 0 40q-4 22 28 58q32 37 140 57q49 6 81 55t34 129q4 80 -32 150
t-108 71q-72 0 -121 -61q-20 -23 -20 -75t-4 -83q-2 -18 -42 -36t-79 -25l-37 -9q-78 0 -98 18t-19 83q6 159 114 243t304 84q422 0 410 -370q-2 -56 -44 -106t-94 -79q-134 -76 -137 -100q2 -10 75 -52q74 -42 144 -115t66 -159q-8 -201 -127 -307t-330 -106z" />
    <glyph glyph-name="four" unicode="4" 
d="M402 483q28 1 50 9t55 16l40 10q29 8 30 219t-13 290t-25 79q-35 -2 -183 -285t-112 -305q18 -14 52 -24q33 -11 56 -10q22 1 50 1zM639 -29q-78 1 -97 19t-20 90q49 194 13 244q-43 21 -297 0l-99 -9l-66 -2q-30 1 -34 7t-11 15t-11 21q-33 133 -26 142q14 17 25 41
l406 755l10 21q8 15 66 29t114 18l56 4q80 0 98 -16t18 -88q-16 -707 0 -762q8 -14 31 -10t47 18l25 12q47 0 79 -26t38 -52l8 -26q0 -70 -20 -86t-103 -17q-14 3 -61 8q-48 5 -62 -6q-25 -29 6 -180l12 -59q0 -72 -18 -88t-98 -17h-29z" />
    <glyph glyph-name="five" unicode="5" 
d="M578 895q194 0 270 -92t76 -350t-98 -377t-316 -119q-217 0 -317 68t-101 227v2q0 35 4 55q4 21 28 41t66 21h50q72 0 91 -27q20 -28 35 -136q8 -55 47 -90q40 -36 91 -36q90 0 125 80t35 240t-50 232q-50 73 -155 73q-33 -1 -48 -17q-28 -31 -41 -70t-26 -94
q-8 -29 -133 -28q-119 -6 -119 108v19l23 637q0 74 17 89t99 15h496q82 0 101 -15t20 -89v-13q0 -72 -22 -85t-107 -9q-14 5 -73 19q-182 42 -271 -9q-29 -16 -43 -186t10 -184q47 -29 120 35t116 65zM236 -111l22 -8l-14 -22h-8v30zM258 -119l8 13q14 -20 -8 -13z" />
    <glyph glyph-name="six" unicode="6" 
d="M502 129q88 1 132 95t44 224t-56 198t-150 69q-94 0 -138 -52q-43 -52 -43 -182t61 -241q62 -111 150 -111zM811 244q0 9 -2 32q-27 -30 -29 -34t8 -15q6 4 14 6t9 11zM547 891q191 0 295 -115t104 -333t-116 -337t-330 -118q-158 0 -262 61t-140 175t-37 398
q0 284 23 412q53 348 422 348q205 0 300 -74t95 -245q0 -106 -98 -80q-18 4 -44 8t-33 6q-31 9 -36 103q-4 49 -62 85t-120 36q-203 0 -172 -390q8 -49 18 -55q27 -18 53 -2t40 42q15 26 42 50t58 25z" />
    <glyph glyph-name="seven" unicode="7" 
d="M913 123l-12 -31l-27 23zM907 1237q0 -25 -14 -40t-21 -36q-193 -705 -266 -913q-45 -123 -108 -209q-8 -10 -8 -33t-14 -34q-13 -11 -58 -11h-43q-69 0 -93 16t-24 54q0 6 20 50t25 54l356 1018q-75 -10 -344 -4l-94 2q-84 0 -103 15t-20 85v15q0 45 17 65t53 22
q36 3 80 3l543 12q78 2 97 -15t19 -83v-33z" />
    <glyph glyph-name="eight" unicode="8" 
d="M561 365q0 -7 -13 -17t-23 22q-9 32 7 31q29 1 29 -36zM676 388q0 116 -44 198t-127 82t-122 -94t-39 -207q0 -209 182 -209q84 0 117 57t33 173zM614 1042q0 195 -135 195q-80 0 -100 -23q-41 -45 -41 -200q0 -193 158 -193q118 0 118 221zM500 -12q-213 0 -317 96
q-103 96 -120 297q-6 88 18 153t68 100t127 66q23 8 19 19q-6 9 -40 29t-70 44t-67 87q-32 63 -36 153q-8 186 149 293q84 57 272 57q189 0 299 -98t103 -274q-2 -80 -31 -131t-62 -70q-98 -52 -105 -86q0 -4 44 -23t95 -69q102 -101 98 -260q-6 -383 -444 -383z" />
    <glyph glyph-name="nine" unicode="9" 
d="M668 946q0 264 -170 264q-94 0 -143 -77q-48 -78 -48 -211t50 -212t147 -79q164 0 164 315zM819 582q0 10 3 18t-25 31l-13 -35zM940 768q0 -320 -17 -442t-65 -185q-113 -154 -356 -153q-426 0 -426 360q0 66 121 70q41 2 57 -11t32 -57t32 -66t26 -48t20 -44t47 -36
q36 -18 91 -23q113 -8 162 93t-25 225q-4 6 -3 15t-5 11q-43 37 -85 39t-100 2q-184 0 -280 112t-96 331q0 422 440 421q279 0 375 -184q55 -110 55 -430z" />
    <glyph glyph-name="colon" unicode=":" horiz-adv-x="442" 
d="M221 2h-20q-82 0 -101 15q-18 15 -18 85v31q0 74 37 108t92 -5q40 4 74 -12q59 -27 55 -124q-2 -35 -7 -52q-5 -18 -32 -32t-80 -14zM340 819q0 -77 -35 -107t-102 11q-113 53 -121 92v37q0 70 17 84t63 14q119 0 157 -49q21 -26 21 -51v-31z" />
    <glyph glyph-name="semicolon" unicode=";" horiz-adv-x="442" 
d="M96 138q0 54 94 46q125 8 125 -37q0 -4 12 -49t-1 -73q-17 -69 -54 -124q-69 -104 -143 -112q-115 -16 -115 33q0 18 37 53q43 16 58 39q18 44 2 125l-9 31q-6 41 -6 68zM88 815v33q0 42 34 66t68 28l35 6q47 0 77 -33t38 -65l6 -33q0 -41 -35 -67t-69 -29l-35 -6
q-82 0 -101 15q-18 15 -18 85z" />
    <glyph glyph-name="less" unicode="&#x3c;" horiz-adv-x="1153" 
d="M387 445v-26q0 -14 10 -16l111 -159q72 -111 59 -129q-97 -23 -151 -19t-62 12t-72 77q-65 69 -101 107q-190 200 -188 229q1 29 151 221t178 198q59 10 79 11t97 -7q19 0 -33 -96t-75 -141l-24 -47q-1 -1 -2 -7q-3 -18 39 -18l611 -2q68 0 96 -32t24 -77q-6 -45 -26 -56
t-98 -9l-523 12q-98 2 -98 -6v-6q-2 -4 -2 -14z" />
    <glyph glyph-name="equal" unicode="=" 
d="M969 518q0 -56 -28 -76t-105 -20l-662 6q-74 0 -96 15t-21 72t21 73q25 20 132 10q304 -28 454 -4l147 31q66 16 112 -18t46 -89zM961 814q0 -52 -42 -70t-92 -13q-50 4 -102 10t-160 8t-280 -42l-56 -15q-66 -10 -123 28t-57 86t8 55q7 7 11 10t17 5t19 2q6 1 29 1h35
l670 18q76 1 100 -15t23 -68z" />
    <glyph glyph-name="greater" unicode="&#x3e;" horiz-adv-x="1153" 
d="M729 619q0 7 -8 36t-21 29q-6 6 -19 26q-13 19 -23 34t-25 38q-14 23 -39 64t-33 70q-8 30 -2 34q188 4 211 -18q31 -35 133 -137q230 -229 230 -259q-1 -30 -149 -229t-175 -205q-59 -10 -81 -11t-97 7q-23 2 121 310q13 26 9 40q-5 13 -11 13q-167 -10 -529 6l-133 8
q-40 0 -64 13t-28 28q-10 68 15 89q24 21 102 20l544 -13q72 0 72 7z" />
    <glyph glyph-name="question" unicode="?" horiz-adv-x="835" 
d="M375 2q-82 0 -101 15q-18 15 -18 85v35q0 78 42 111t99 -17q58 -30 91 -68q32 -38 28 -65q0 -6 -8 -35t-16 -32q-7 -4 -20 -17t-73 -12h-24zM33 1054q0 62 20 128t55 106t122 71q87 30 180 30q372 0 372 -338q0 -103 -37 -181t-113 -159t-92 -73q-6 3 -12 -3t-7 -9
q-1 -2 -5 -56t-29 -90t-49 -34t-43 5q-178 0 -104 118q20 55 158 203q47 46 55 97t10 70t0 62t-2 58q0 78 -29 138t-82 60t-101 -59t-48 -117l2 -72q0 -39 -4 -48t-10 -20t-16 -10t-24 -4q-15 -5 -36 1l-33 4q-68 6 -83 33t-15 89z" />
    <glyph glyph-name="at" unicode="@" horiz-adv-x="1458" 
d="M719 1081q170 -1 251 -65t81 -195q0 -27 -1 -37q-3 -34 -33 -41q-30 -6 -67 -6h-26q-16 0 -39 -1t-27 0t-13 2q-9 2 -10 12t-5 19q-3 9 -5 36t-5 51t-34 67q-32 44 -62 44t-64 -23t-39 -55q-16 -76 -5 -176l9 -47q6 -49 7 -129q1 -79 3 -89t5 -27t5 -25t6 -23
q4 -16 19 -33q23 -27 63 -28q39 -1 59 47q19 47 23 103t29 72t90 17h24q72 0 95 -17q22 -18 22 -65q0 -121 -96 -196t-252 -75t-238 55q-82 54 -108 169q-4 37 -4 63l6 150l-2 64v63q2 96 8 122t37 72q78 125 293 125zM1282 647q0 186 -116 349t-285 223q-44 14 -97 8
t-75 -6q-238 0 -406 -168t-168 -406q0 -237 168 -405t416 -168q247 0 405 162t158 411zM1421 647q-1 -291 -205 -495t-495 -205q-56 0 -107 19t-69 24q-172 49 -300 164q-128 116 -176 282t-49 211q0 291 205 496t496 205t495 -205t205 -496z" />
    <glyph glyph-name="A" unicode="A" horiz-adv-x="1116" 
d="M743 436q23 0 -18 162t-96 324t-68 161q-2 0 -15 9t-22 -7q-47 -94 -120 -361q-72 -268 -58 -280q22 -19 178 -12q156 6 219 4zM696 1098q7 -14 13 -21q12 16 12 70l-4 24l-21 25v-98zM109 2q-119 0 -117 58q0 26 12 63l365 1161q18 58 35 70t90 12h112q72 0 88 -10
t35 -72l330 -1106q29 -100 11 -135t-95 -39q-100 0 -115 8q-14 8 -33 74q-33 188 -61 213q-41 16 -188 11t-224 -15q-42 -7 -66 -65t-28 -115l-4 -56q-14 -33 -51 -47t-66 -12z" />
    <glyph glyph-name="B" unicode="B" horiz-adv-x="1097" 
d="M682 981l-41 12l16 21zM745 386q0 128 -68 183q-69 55 -228 62q-68 12 -99 -8q-30 -25 -22 -216t28 -210q32 -19 82 -13h17q115 0 161 6t76 27q53 41 53 169zM700 987q0 229 -184 230q-30 10 -97 10t-77 -33q-20 -395 10 -420q37 -26 111 0l29 8q102 0 155 56t53 149z
M1020 389q6 -252 -170 -336q-147 -68 -395 -51q-221 10 -289 64q-62 56 -52 252q3 47 3 51l2 956q0 33 90 44t180 5l92 -6q256 37 368 -57t116 -305q2 -82 -36 -138t-85 -75t-85 -37t-36 -35q0 -6 30 -7q84 -3 157 -48q42 -28 74 -98t36 -179z" />
    <glyph glyph-name="C" unicode="C" horiz-adv-x="972" 
d="M940 1004q0 -74 -96 -74q-46 0 -59 1t-27 2t-22 5t-16 6q-7 2 -11 11t-10 16t-7 56q-2 49 -4 63q-4 49 -66 97t-126 48t-108 -37q-44 -36 -57 -100t-14 -336q12 -111 15 -281t11 -208q8 -37 22 -52l18 -18q41 -47 133 -47q137 0 146 178q2 100 29 122q28 22 128 17
q78 0 100 -17q21 -18 21 -75q0 -401 -430 -401q-213 0 -320 78q-106 79 -127 247q-4 53 0 170q-22 180 -12 230q6 109 2 181q-10 174 29 266q39 91 78 139q39 47 94 67q78 28 183 28h61q218 0 330 -97t112 -285z" />
    <glyph glyph-name="D" unicode="D" horiz-adv-x="1103" 
d="M735 398q0 54 -1 118t1 141q16 170 -22 366q-17 83 -69 136t-136 47l-90 -4q-68 -10 -64 -39q6 -49 8 -475t4 -458q4 -54 72 -42l25 5q238 8 268 135q4 16 4 70zM840 1081q-8 25 -11 47q0 8 -9 2t-27 -10zM494 1368q210 0 324 -45t162 -145t48 -434q0 -332 -14 -430
t-62 -158q-113 -154 -456 -154h-207q-80 0 -137 35t-58 98l-8 1131q0 72 17 87t100 15h291z" />
    <glyph glyph-name="E" unicode="E" horiz-adv-x="909" 
d="M227 1181l2 23q0 31 -28 70q-13 -16 -25 -49l8 16q0 -16 13 -78q12 6 21 9t9 9zM809 696v-6q0 -70 -22 -85t-105 -15q-113 23 -210 20q-97 -2 -116 -8q-42 -14 -32 -206t59 -191l365 -8q50 0 78 -24t32 -46l4 -25q0 -70 -17 -85t-100 -15h-542q-82 0 -101 16
q-18 16 -16 72q13 360 8 649l-8 525q-6 70 14 87t103 17l459 -8q48 0 78 -27t36 -55l6 -27q0 -59 -12 -66q-24 -14 -60 -14h-61l-239 -2q-56 0 -54 -28q-35 -295 11 -348q36 -18 237 0l78 6q84 -3 106 -19t21 -84z" />
    <glyph glyph-name="F" unicode="F" horiz-adv-x="872" 
d="M100 454q6 269 6 415t-16 327l-4 70q-2 70 16 85t101 15h518q47 0 77 -27t36 -53l6 -26q0 -70 -22 -86t-103 -17l-363 12q-25 0 -21 -133q1 -33 6 -77q5 -45 8 -73t7 -63t4 -37q48 -31 258 0l82 13q47 0 77 -27t36 -55l6 -27q0 -70 -18 -86t-101 -16q-225 20 -362 0
q-26 -33 10 -359l16 -123q0 -33 8 -73q4 -22 -79 -31l-90 -8q-74 -8 -94 21q-19 30 -15 100t10 339z" />
    <glyph glyph-name="G" unicode="G" horiz-adv-x="1081" 
d="M532 1386q156 0 251 -40t149 -125q54 -86 55 -164t-21 -94q-22 -17 -88 -17h-98t-36 5t-10 7q-7 2 -9 14t-7 20q-5 9 -10 43q-4 34 -12 72t-61 81t-126 43t-122 -48t-61 -128q0 -3 -5 -17t-6 -18l-2 -84q-4 -120 11 -358l6 -82q0 -154 5 -192q11 -83 102 -122
q52 -23 106 -22q135 0 215 41q43 25 32 189t-53 184q-42 22 -114 16h-27q-49 6 -75 22t-25 31v14q0 76 9 87t87 12h194q78 0 140 -36t63 -93v-453q0 -58 -47 -82q-164 -113 -428 -112q-328 0 -405 264q-43 115 -41 366l2 318q10 198 127 328t335 130z" />
    <glyph glyph-name="H" unicode="H" horiz-adv-x="1107" 
d="M745 1335q10 0 68 27q6 0 17 1t56 -4t67 -27q21 -23 22 -50l47 -1165q2 -70 -15 -86t-98 -21l-43 -2q-50 0 -62 -2t-24 0t-14 5q-10 15 -10 37v34q25 535 -19 534q-53 0 -127 6t-121 2q-47 -5 -120 -26q-7 -2 -11 -137t-2 -268l2 -136v-18q0 -39 -10 -43h-24l-48 -2
l-28 -2q-61 -2 -96 0t-49 19q-13 17 -13 65l-27 1177q-3 70 15 86t98 21l41 2q82 0 100 -14t21 -84l20 -463q93 -46 194 -29q36 6 96 22t89 21q42 36 8 340l-14 115l2 40l2 18q0 7 10 7zM430 1221q-10 4 -19 26t11 23q16 0 8 -49z" />
    <glyph glyph-name="I" unicode="I" horiz-adv-x="622" 
d="M375 862q0 -8 12 -20t12 -21q18 -631 25 -645l43 -4q20 -6 48 -8t34 -10t6 -34t-12 -76t-35 -58l-176 10l-180 -4q-41 0 -53 6q-13 6 -20 8t-11 12t-8 14t-5 20v78q1 26 15 33q30 15 86 11q0 2 20 -12q16 76 12 416t-34 616q0 6 -4 6h-8l-23 -2q-78 0 -78 45q0 4 -1 26
q-3 62 24 81q27 18 84 18t71 -6t55 1t43 7q27 -12 54 -12l114 10q27 0 40 -50q21 -82 -32 -87q-22 -2 -41 2q-49 10 -51 -29q-2 -131 0 -303q0 -6 -13 -18q-13 -13 -13 -21z" />
    <glyph glyph-name="J" unicode="J" horiz-adv-x="942" 
d="M794 1182q-6 0 -8 -2q-18 -155 2 -459l9 -121v-174q0 -278 -107 -372q-41 -36 -100 -48q-223 -32 -311 -18t-160 69q-31 23 -65 85t-39 122t55 78l47 4q60 4 85 14q25 9 38 -25l16 -52q6 -18 17 -55t21 -39q10 -3 26 -13t34 -7t48 -3t65 0q29 0 42 13t23 47t15 42
q8 35 2 149t-14 337t-19 420q0 16 -30 16t-58 -8l-29 -8q-57 10 -75 58t7 90q26 42 79 42l409 -8q39 0 65 -30q55 -64 6 -130q-24 -31 -69 -35q-21 21 -27 21z" />
    <glyph glyph-name="K" unicode="K" horiz-adv-x="1064" 
d="M840 188q14 -5 32 -41zM438 78l13 12q-6 -10 -13 -45v33zM1010 139q34 -51 34 -80t-13 -35t-49 -10q-36 -6 -59 -13t-75 1q-60 0 -74 7t-27 26t-200 329t-193 310q2 -6 2 -15l4 -557q0 -40 -38 -64t-80 -30l-39 -6q-82 0 -100 15q-17 15 -17 85l2 1192q0 27 16 41
q16 15 32 17t46 1q29 -1 33 -1q61 39 99 1t38 -114q2 -248 2 -418l361 492q4 4 7 8q24 32 119 24q35 -3 73 3t65 -8q53 -28 -12 -113q-128 -121 -249 -266q-122 -144 -128 -189q-4 -28 101 -186t212 -303zM881 156l-30 26q-15 19 -36 -2l25 -57q6 6 21 15t20 18z" />
    <glyph glyph-name="L" unicode="L" horiz-adv-x="811" 
d="M774 28q0 -26 -69 -26l-529 10h-41q-42 0 -51 24q-4 11 -3 16t1 27v36l4 1151q0 72 17 87t61 15q90 0 143 -28t53 -70q-35 -595 -34 -830q2 -234 16 -231q115 9 293 4h65q50 0 64 -20t6 -41l-10 -23q0 -27 7 -59t7 -42z" />
    <glyph glyph-name="M" unicode="M" horiz-adv-x="1523" 
d="M217 4h-14q-82 0 -100 15q-17 15 -17 85l-23 1162q-1 72 17 87t100 15h217q76 0 91 -10t32 -74l172 -682q27 -168 60 -170q16 0 27 38t14 75l2 39l206 702q19 62 35 72t90 10h136q82 0 99 -15t17 -87l37 -1162q0 -113 -133 -100q-106 8 -104 104q1 46 17 224
q17 178 21 372q6 194 -4 258t-32 62q-33 -2 -105 -236t-127 -466l-55 -234q-12 -35 -51 -55t-72 -25l-33 -4q-72 8 -89 16q-16 8 -24 31t-8 35q-213 1024 -268 1026q-35 0 -39 -252t10 -504l15 -252q-2 -70 -20 -85t-97 -15z" />
    <glyph glyph-name="N" unicode="N" horiz-adv-x="1189" 
d="M205 1139q25 10 24 41v49q-4 -6 -6 -12t-8 -9zM956 4h-145q-66 0 -86 11q-21 11 -27 31l-307 810q-28 77 -40 115t-20 44q-9 7 -20 7q-28 0 -16 -74l6 -24q15 -168 28 -462t5 -425q0 -21 -24 -27t-48 -2t-41 0q-67 -41 -101 -11t-34 107l4 1162q0 68 16 81t99 19l108 8
q150 6 185 -86l274 -715q9 -28 23 -65q13 -37 31 -92t18 -82t1 -34q2 -12 9 -14t29 5q33 80 -31 725l-27 250q-1 68 17 84t100 16h23q82 0 99 -15t17 -85l-6 -1162q0 -70 -18 -85t-101 -15z" />
    <glyph glyph-name="O" unicode="O" horiz-adv-x="1067" 
d="M197 293q0 -10 16 -35v33q2 2 8 4q-2 6 -13 7t-11 -9zM516 1231q-141 0 -172 -82q-30 -62 -17 -137q5 -29 5 -43l2 -580q0 -121 40 -175t148 -54h49q78 0 95 37q49 82 51 231l6 494q4 190 -39 233q-66 76 -168 76zM532 -20q-196 0 -316 70t-144 194q-11 50 -11 590v178
q2 207 110 291t370 83q325 1 413 -196q20 -41 26 -291t-18 -512q-22 -262 -71 -309q-100 -98 -359 -98z" />
    <glyph glyph-name="P" unicode="P" horiz-adv-x="1009" 
d="M209 1098h24q8 18 17 24q-2 6 -7 33t-22 37l-12 -16v-78zM628 798q56 69 53 174t-59 179t-161 74q-53 4 -96 -13q-36 -175 -25 -368q6 -109 41 -119q47 -10 70 0l10 2q111 2 167 71zM162 1360h352q214 0 320 -92t109 -290t-109 -304q-58 -54 -134 -74t-219 -20
q-66 18 -119 -2q-36 -14 -34 -154t4 -272q2 -133 -31 -138l-94 -10q-80 -10 -102 9t-21 91l8 1166q0 16 -2 34t-1 26q1 6 2 18q2 12 71 12z" />
    <glyph glyph-name="Q" unicode="Q" horiz-adv-x="1083" 
d="M524 127q68 0 120 38t65 97q0 2 24 59t21 117l-17 572q-4 6 -19 46t-45 86q-31 46 -63 62q-95 48 -187 1q-58 -30 -75 -72q-16 -43 -16 -181l2 -553q0 -131 43 -201t147 -71zM1016 193q52 0 74 -21q22 -22 22 -78t-22 -76t-89 -20l-122 2q-115 0 -227 -10t-160 -10
q-166 0 -279 72t-141 198q-12 51 -13 258v487q2 127 33 194t109 120q115 78 317 77q319 0 428 -190q41 -78 41 -266v-502q0 -60 -55 -122t-90 -97t-2 -52q32 -17 100 9t76 27z" />
    <glyph glyph-name="R" unicode="R" horiz-adv-x="1089" 
d="M414 791q20 0 63 6q123 0 181 44t57 147q0 102 -52 158t-178 56q-23 8 -58 11q-36 3 -54 -9q-33 -12 -36 -204t34 -201q23 -8 43 -8zM815 -8h25l-17 -12h17q-2 -4 -4 -10t-8 -9q-6 -2 -13 -6v37zM989 999q0 -61 -38 -113t-85 -81q-123 -76 -123 -96q0 -11 28 -23t68 -28
q80 -31 89 -94q2 -13 5 -53t7 -73l8 -241q4 -74 -4 -96t-47 -46l-63 -18q-54 -18 -79 -3q-5 3 -9 4t-7 6q-4 5 -6 7t-12 17q-27 32 -33 114t-5 110t-8 130t-57 138t-176 36q-62 20 -80 2q-26 -16 -30 -133t4 -225l6 -109q-3 -72 -12 -98q-8 -25 -28 -31t-58 -6h-41
q-82 0 -100 15q-17 15 -17 87l18 1110q0 152 136 154l282 4q256 2 362 -81t105 -286z" />
    <glyph glyph-name="S" unicode="S" horiz-adv-x="1060" 
d="M737 1047q0 59 -46 122t-111 70q-96 8 -144 -55q-48 -64 -52 -158q-3 -94 108 -166q18 -12 94 -49l88 -43q180 -86 246 -175t59 -235q-6 -182 -132 -280t-355 -98t-347 102q-117 102 -108 295q4 80 22 97q18 16 73 18q160 4 172 -32q1 -3 0 -11t-3 -29q-2 -22 -3 -88
q-2 -66 64 -136t155 -71q89 0 137 52t52 133t-58 135t-214 124q-205 95 -268 197t-57 268t122 259q117 93 333 93t328 -93t105 -269q-2 -43 -7 -66q-6 -23 -30 -42t-71 -21l-39 -4q-78 -6 -96 22t-17 134zM147 1331l-14 -26l-24 22l12 21z" />
    <glyph glyph-name="T" unicode="T" horiz-adv-x="958" 
d="M971 1264q0 -66 -23 -81t-118 -15t-151 -5q-56 -6 -58 -35q-17 -150 -21 -406t2 -439l6 -183q0 -28 -22 -54q-48 -57 -107 -38l-12 2q-94 -14 -114 0q-19 14 -19 90q37 1042 -6 1060q-42 18 -100 22q-58 2 -95 -6l-37 -7q-86 5 -98 15t-12 80v8q0 68 22 82q23 14 107 12
q127 -12 323 -20q195 -8 279 8l129 20q82 10 104 -9t21 -93v-8z" />
    <glyph glyph-name="U" unicode="U" horiz-adv-x="1116" 
d="M895 358l-29 -55l-35 -31l64 11q-8 31 -9 41t9 34zM1008 504q0 -125 -18 -204t-41 -111q-22 -32 -68 -80q-123 -129 -342 -129q-147 0 -253 48t-151 134q-49 98 -49 342v758q0 76 22 98t101 4l59 -12q72 -14 91 -44t20 -100l-4 -766l-2 -128q0 -60 12 -78q55 -88 147 -89
q119 0 156 83t43 200l45 791q6 67 18 91t44 31l55 3q80 0 97 -16t18 -87v-739z" />
    <glyph glyph-name="V" unicode="V" horiz-adv-x="1019" 
d="M899 1368q115 0 115 -58q0 -26 -8 -63l-338 -1130q-31 -98 -148 -111q-37 -4 -100 14q-58 10 -74 26t-26 48q-10 33 -13 39l-309 1114q-8 23 -8 55t24 49q25 17 92 17h48q74 0 87 -10t29 -78l176 -733q4 -19 14 -109t22 -158q13 -68 38 -77q18 -4 29 18q15 34 20 159
t20 185t41 156q166 613 212 639q23 13 47 8h10z" />
    <glyph glyph-name="W" unicode="W" horiz-adv-x="1665" 
d="M-14 1294q0 74 86 74q48 0 83 -8q96 -22 111 -78l127 -524q7 -25 23 -200t45 -177q20 1 24 27t8 66q3 40 12 88t8 104q-1 55 3 71l115 498l22 51q9 20 61 34t101 19l47 4q137 27 154 -102l92 -579q4 -24 24 -208t31 -184q18 12 24 37q5 25 6 74t5 80q29 158 33 174
l162 645q16 66 32 77t91 11h22q117 0 117 -60q0 -26 -6 -59l-283 -1116q-14 -55 -39 -73t-94 -35l-76 -19q-69 -18 -93 -1t-40 87l-135 565q-16 68 -13 191q3 122 -7 147q-9 24 -27 21q-31 -6 -42 -45q-10 -39 -16 -114t-14 -114l-145 -651q-13 -64 -31 -76t-94 -12h-78
q-76 0 -92 11t-33 75l-301 1159q-10 39 -10 45zM1243 977l-18 39q14 6 18 24v-63z" />
    <glyph glyph-name="X" unicode="X" horiz-adv-x="1054" 
d="M920 2h-54q-57 0 -64 7t-11 23t-11 29q-2 3 -34 19t-33 20l-127 246q-24 45 -28 45t-8 8q-10 24 -32 20q-22 -3 -37 -3t-29 -26q-15 -26 -24 -36q-215 -305 -276 -334l-35 -14q-45 -23 -83 4t-34 66q0 20 25 61q123 162 232 339q109 176 114 231q2 16 -74 132
q-227 347 -205 447q6 28 33 52t67 31t69 -5q28 -12 54 -64l140 -247q27 -47 37 -83t8 -47t2 -15t20 -4q16 1 21 11q4 10 14 42t27 65l125 246q30 58 52 62q36 7 64 16l64 20q49 16 81 -8t32 -54q0 -28 -25 -69q-305 -473 -313 -530q-4 -33 82 -175t176 -268l90 -125
q24 -45 24 -61q4 -74 -116 -74z" />
    <glyph glyph-name="Y" unicode="Y" horiz-adv-x="1019" 
d="M997 1305q0 -32 -22 -70q-102 -131 -207 -301q-104 -170 -143 -281t-49 -296t-18 -303q-7 -118 -44 -117h-41q-53 0 -73 30q-21 36 -21 72l-4 61q4 301 -41 488q-27 120 -105 282t-143 265l-63 104q-42 82 4 113q25 16 92 16q111 -4 147 -74l127 -262q43 -92 103 -155
q20 -23 26 81v21l146 307q27 53 211 82q53 16 86 -7q32 -24 32 -56zM434 741l2 -14q-2 6 -2 14zM479 716q0 38 -33 38q-24 0 -10 -28q5 -54 10 -67q33 19 33 57zM438 719v-2v2z" />
    <glyph glyph-name="Z" unicode="Z" horiz-adv-x="993" 
d="M346 213q175 0 383 25l78 6q45 4 79 -16t44 -40l10 -22v-50q0 -54 -14 -67q-31 -28 -84 -29l-690 -18q-82 -2 -101 14q-18 16 -18 86v74q0 37 645 973q-78 20 -203 22t-211 -6l-86 -8q-102 5 -127 23t-24 77q-12 24 -5 45q13 39 64 39l608 9q12 0 66 4t80 3t60 -14
t50 -40q43 -63 -30 -187q-324 -459 -527 -813q-4 -6 -49 -61q-27 -29 2 -29z" />
    <glyph glyph-name="bracketleft" unicode="[" horiz-adv-x="636" 
d="M213 -322q-75 0 -99 31t-20 103q38 589 8 1253l-8 199q0 70 18 86t101 16h217q82 0 100 -16t19 -93q0 -46 -137 -39q-59 3 -70 1q-26 -47 -16 -701t30 -690q15 -15 68 16l20 11q41 1 68 -19t33 -41q15 -69 -11 -92q-27 -24 -104 -25h-217z" />
    <glyph glyph-name="backslash" unicode="\" 
d="M897 1128q-33 -39 -79 -163t-70 -244q-24 -119 -101 -383q-78 -264 -110 -305q-7 -8 -15 -52t-30 -61q-45 -33 -138 -12q-119 -2 -118 76q0 12 45 102q34 81 169 420q258 651 207 647q-133 -10 -253 -6q-119 4 -195 5t-92 23t-17 97q-6 11 0 29q20 62 152 57l536 -10
q115 -3 109 -220z" />
    <glyph glyph-name="bracketright" unicode="]" horiz-adv-x="636" 
d="M78 -193q0 54 35 49q24 -3 57 -6q84 8 116 14t19 661q-12 654 -41 679q-8 6 -31 6t-69 -16q-47 -16 -70 -8t-22 59v25q-2 63 22 84q25 20 103 12l206 -23q71 -11 80 -33t9 -102l34 -1425q0 -59 -29 -69q-29 -9 -61 -10q-33 -1 -51 -3l-188 -20q-86 -10 -112 10t-9 94
q2 6 2 22z" />
    <glyph glyph-name="asciicircum" unicode="^" 
d="M299 414q0 -130 62 -222q63 -92 151 -95t127 97t39 240t-45 234q-45 92 -133 86q-201 -14 -201 -340zM946 419q0 -216 -117 -330t-331 -103q-158 8 -262 72t-140 178t-35 396q0 282 23 406q29 178 132 257t300 70t291 -87t94 -244q0 -109 -102 -76q-23 6 -68 8t-59 19
q-14 15 -18 69t-54 104q-49 50 -106 52q-104 6 -153 -60q-48 -67 -48 -245q-6 -66 10 -76q45 -27 127 13t119 37q189 -10 293 -127t104 -333zM94 1458q1 6 2 6l1 -6h-3zM97 1458q35 -1 34 -24q-1 -8 -17 -20t-16 3l-1 25l1 8l-1 -3v11zM92 1456q0 2 2 2q-1 -4 -1 -9
q-1 5 -1 7zM93 1449q1 -5 1 -7l3 5v-5l-5 -37q0 29 1 44z" />
    <glyph glyph-name="underscore" unicode="_" horiz-adv-x="24" 
d="M618 1107v7q1 -3 0 -7zM504 326l14 -102q0 -21 -11 -39t-18 -82q-6 -65 -10 -81t0 -40t-6 -50t-14 -53v-51h-53v37q0 35 16 59q23 34 29 79q6 44 12 60v148q22 28 22 58v83l-12 168q0 248 31 297q4 6 3 28t2 31t17 26q14 16 18 28t8 41q5 48 19 52q15 5 15 19q0 13 15 33
t17 32l-2 -103q-38 -145 -55 -187q-4 -18 -10 -50t-21 -52l-2 -189l-10 -39l-2 -108q-12 -27 -12 -53z" />
    <glyph glyph-name="grave" unicode="`" horiz-adv-x="1146" 
d="M614 1135q0 -49 -102 -50q-41 1 -55 7t-45 41l-123 147q-35 40 -38 60t24 40q28 20 71 21q115 -6 156 -62l106 -147q19 -27 13 -41q-7 -14 -7 -16z" />
    <glyph glyph-name="a" unicode="a" horiz-adv-x="907" 
d="M287 303q0 -53 34 -96t80 -43q90 0 123 53q56 90 23 143q-8 86 -53 105q-53 20 -130 -32t-77 -130zM752 182q0 28 -6 50t-15 -15q-23 -84 -14 -127q4 -10 10 2l15 36t10 54zM686 0h-24q-46 0 -61 66t-50 63q-20 -4 -53 -40q-96 -104 -166 -103q-272 0 -273 286
q-1 128 49 176t191 80q10 2 96 18t119 29q14 7 14 58l-2 16q0 92 -23 151q-24 58 -83 52q-98 -10 -103 -145q0 -61 -24 -67q-24 -5 -66 -5h-22q-69 0 -93 17t-24 59q0 117 95 185t269 67q174 0 255 -91q63 -71 63 -297l2 -22q19 -106 31 -367l2 -84q3 -68 -17 -85t-102 -17z
M858 807l-10 -4l-19 43l29 -10v-29z" />
    <glyph glyph-name="b" unicode="b" horiz-adv-x="913" 
d="M494 338q20 6 33 -6t11 -32t-16 -26q-14 -8 -25 8q-29 40 -3 56zM475 838q-59 0 -98 -47q-25 -25 -25 -95v-88l-4 -174q-4 -142 26 -206t106 -64t89 76v6q2 8 2 10l9 174q2 205 2 242q-4 166 -107 166zM223 2h-24q-82 0 -97 15q-14 15 -6 87q-6 199 9 408t4 612l-5 136
q0 46 23 69t61 23h84q2 -2 18 1t32 -19q18 -22 18 -64l-21 -215q-8 -156 17 -168q26 -13 56 11t71 54t82 29q113 0 189 -52t94 -135t12 -278l-6 -203q-8 -152 -50 -213q-80 -113 -249 -112q-55 0 -125 70t-96 59q-47 -22 -44 -71q2 -16 -8 -30t-39 -14z" />
    <glyph glyph-name="c" unicode="c" horiz-adv-x="808" 
d="M403 963q332 0 332 -261q0 -43 -10 -59t-32 -20t-58 -5h-27q-16 0 -39 -1t-27 0l-12 3q-10 2 -11 11q-1 10 -4 19t-5 36q-2 26 -5 50t-34 68t-61 44t-65 -23q-34 -23 -40 -55q-16 -76 -4 -176l16 -141q5 -49 7 -129t4 -90t5 -26t5 -24t6 -26t24 -38q19 -20 58 -21
q67 -2 84 169q2 38 27 54t90 16h24q73 0 95 -18t22 -64q0 -121 -96 -196q-96 -74 -252 -74t-238 54t-108 169q-4 37 -4 63l6 150l-10 221q2 96 8 122t37 73q78 125 292 125z" />
    <glyph glyph-name="d" unicode="d" horiz-adv-x="905" 
d="M670 172l10 -49v-4q2 -8 25 0q12 8 11 26q0 17 -12 33t-23 10t-11 -16zM543 389v227q0 121 -21 154q-47 76 -100 76q-84 0 -105 -72q0 -4 -14 -47t-18 -94l-13 -148q4 -264 39 -313q8 -14 44 -24t65 -9q68 -1 96 63t27 187zM668 1356q77 0 102 -9t29 -29t4 -54
q-30 -504 -4 -949l4 -120q4 -158 -119 -158h-25q-49 0 -65 17t-29 22q-37 12 -99 -38t-110 -50q-122 0 -196 57t-92 164q-9 70 -7 314q2 245 27 302q70 156 274 156q49 0 114 -50q64 -50 88 -44t24 23l-19 91q8 90 -32 203l-13 41q-10 72 12 91t105 20h27z" />
    <glyph glyph-name="e" unicode="e" horiz-adv-x="868" 
d="M551 567q8 12 -6 66q0 242 -119 241q-61 0 -94 -57t-34 -141t13 -101q37 -41 122 -39t118 31zM422 989q332 0 364 -407v-52q0 -66 -18 -80t-100 -20q-8 2 -20 3t-51 6q-143 19 -225 11t-90 -31q-9 -24 1 -63l2 -16q0 -197 133 -197q56 -1 74 11t21 56t28 59t92 16h12
q73 -1 97 -17t24 -61q0 -119 -79 -157t-263 -38q-289 0 -350 211q-4 14 -4 35l4 131q-2 127 -5 164t1 43q12 137 59 242q5 9 10 -90q6 -99 11 -105q5 33 1 125t-1 106q38 49 112 82t160 33zM700 1090q9 -3 29 -13v-20q-19 10 -22 18q-2 8 -7 15z" />
    <glyph glyph-name="f" unicode="f" horiz-adv-x="569" 
d="M406 233h-21v17l21 12v-29zM425 1380q142 0 142 -78q0 -64 -32 -79q-12 -6 -43 -19l-37 -14q-72 -27 -68 -80q-48 -145 0 -166q7 -4 23 -4t26 2h10q74 -4 98 -20q23 -17 23 -54t-1 -48q-2 -23 -33 -16t-83 6t-71 -13q-63 -51 -19 -470q10 -95 21 -159l8 -66
q0 -68 -15 -84t-83 -18l-17 -20q-94 0 -116 16t-19 88q31 417 0 618q0 4 6 48t-8 53l-31 6q-33 0 -73 -4q-39 -4 -44 4t-5 52q0 43 19 59t101 22q27 -2 41 3t15 37q0 32 -8 60l-9 29q35 197 54 236q33 61 127 71q29 2 101 2z" />
    <glyph glyph-name="g" unicode="g" horiz-adv-x="909" 
d="M412 817q-76 0 -95 -51q-6 -16 -15 -158t5 -241q13 -99 25 -127t46 -56q34 -29 68 -28q70 0 88 52q17 52 13 183l-2 199q-4 147 -27 178q-30 49 -106 49zM733 170q-1 -14 11 -20t23 3t-1 31q-14 32 -26 10q-6 -10 -7 -24zM239 -63q27 -1 37 -5t26 -26t26 -66
q2 -16 123 -16q67 0 89 32t25 121q2 5 5 13t11 28q27 77 -6 95q-20 10 -97 -36t-124 -46q-223 0 -276 178q-16 47 -23 260q-2 190 5 256t36 111q82 129 273 129q49 1 88 -51t59 -48q0 2 9 25t17 35t35 25q26 13 46 13t59 -1t50 -13t24 -26t18 -72l41 -803q4 -121 -6 -172
t-41 -96q-72 -104 -348 -105q-152 0 -224 45t-110 144q-16 39 12 65t101 9q12 -2 40 -2z" />
    <glyph glyph-name="h" unicode="h" horiz-adv-x="931" 
d="M526 612q0 -18 -21 -18q-13 0 -13 7v15q0 12 8 14t16 5q10 -20 10 -23zM90 98q29 312 29 567t-25 500l-8 88q-2 49 32 73t72 32q58 43 96 11t40 -109l-17 -287q-2 -88 8 -92q35 -17 66 7t67 58t72 35q190 0 260 -109q25 -40 30 -78t7 -167l8 -498q0 -68 -46 -113
t-101 -36q-14 2 -43 4t-34 6q-21 17 -21 73l-13 549q-4 117 -24 155q-19 38 -81 36t-88 -27t-34 -80q0 -6 -13 -16t-14 -16l23 -39l6 -512q0 -63 -39 -91t-88 -25t-71 8t-38 28t-18 65z" />
    <glyph glyph-name="i" unicode="i" horiz-adv-x="552" 
d="M389 655l-8 74q-39 -23 -36 -37t44 -37zM434 70q0 -38 -35 -56t-71 -14l-35 2q-82 0 -100 15t-17 85l12 648q0 10 -70 20t-67 25q0 5 -1 27q-4 76 42 100q20 14 99 12t83 -2l33 8q78 18 103 -4t24 -96v-770zM317 1133h-24q-55 0 -82 41t-33 79q-39 51 3 80q43 29 105 34
t109 -39t40 -93t-24 -76q-17 -26 -94 -26z" />
    <glyph glyph-name="j" unicode="j" horiz-adv-x="512" 
d="M131 -352q-69 0 -91 16t-23 66t24 64q26 15 70 20q45 4 69 93q25 89 21 159q-2 557 -33 694q-4 25 -59 31q-56 7 -54 28q2 6 0 53t11 56q27 26 131 28t133 -10q55 -7 68 -41q8 -18 8 -45l-7 -848q-1 -160 -67 -262t-201 -102zM406 1223q0 -76 -44 -103t-108 15
q-18 4 -24 5q-53 8 -75 47q-9 15 -10 36v41q0 78 36 108t100 -10q111 -41 125 -90v-49z" />
    <glyph glyph-name="k" unicode="k" horiz-adv-x="870" 
d="M827 68q0 -45 -59 -62l-72 -6q-37 -4 -52 -6q-14 -2 -30 4t-18 8t-14 26t-21 36l-108 241q-104 211 -140 203q-34 -38 15 -324l16 -112q0 -64 -55 -84t-121 -2q-10 4 -30 6t-30 6q-26 11 -22 74q10 426 10 682l-6 469q0 75 25 103t127 28q50 0 74 -28t24 -64l-37 -353
q-25 -307 12 -317q18 -4 65 58q46 62 83 128l39 64q12 12 41 51t52 55q24 16 56 17h45q41 -1 68 -21t27 -47t-37 -72q-29 -23 -70 -57t-104 -110q-64 -76 -56 -112q13 -60 217 -325l66 -84q23 -37 22 -54q-2 -17 -2 -19zM524 1098v32q6 -2 14 -4t11 -13q2 -11 4 -15h-29z
" />
    <glyph glyph-name="l" unicode="l" horiz-adv-x="501" 
d="M377 53q-1 -33 -21 -41t-56 -5t-84 -2t-74 12t-24 94t11 479q10 402 0 622q0 16 -59 16t-60 11l2 66q-8 37 28 45t86 2t98 14t100 -6q52 -27 53 -94v-1213z" />
    <glyph glyph-name="m" unicode="m" horiz-adv-x="1382" 
d="M188 831q0 -12 21 -28l16 16v74h-32v-49l-5 20v-33zM1278 102q0 -38 -36 -64t-71 -30l-36 -6q-80 0 -99 15q-18 15 -18 85v551q0 76 -29 104t-90 27q-152 0 -145 -166l14 -516q8 -115 -115 -114q-37 0 -59 5t-40 29q-17 24 -17 68l12 563q2 78 -26 109t-88 31
q-59 0 -77 -36t-18 -136l4 -519q0 -44 -22 -66t-42 -25q-22 -3 -65 -3t-62 3t-39 25q-19 22 -20 66l-12 736q-2 70 16 86t101 16h24q51 0 65 -26q38 -69 137 5q69 52 118 52q49 -1 115 -55t114 -51q49 3 102 59t111 55q165 0 229 -70t64 -256v-551zM772 1181q0 -3 10 -7
t11 -5q-23 -14 -54 -41l23 54h4q6 2 6 -1z" />
    <glyph glyph-name="n" unicode="n" horiz-adv-x="937" 
d="M700 2q-82 0 -99 15t-17 87l-11 564v76q0 38 -16 48q-16 9 -75 9q-60 0 -103 -30t-39 -118q14 -203 14 -309l-14 -244q-4 -70 -22 -84t-95 -14h-24q-82 0 -101 16q-18 16 -16 86q8 176 10 291l-10 461q-4 81 38 94q15 6 55 18t75 -52q36 -64 78 -74t102 60t107 69
q182 0 256 -111q51 -82 41 -219l-9 -528q-2 -12 -3 -34q-2 -53 -19 -65q-16 -12 -78 -12h-25zM840 985q0 -12 -7 -13q-14 -2 -14 25q0 44 33 19q8 -6 5 -7t-10 -7t-7 -17z" />
    <glyph glyph-name="o" unicode="o" horiz-adv-x="905" 
d="M209 651v-49q12 -8 24 -12v33q-6 17 -12 20zM446 858q-60 0 -80 -22q-19 -22 -28 -66q-12 -92 -12 -305t28 -291t119 -78q53 0 80 24t33 81q8 57 8 170l-10 168q0 29 -7 125t-8 100q-4 61 -33 78q-30 16 -90 16zM825 472q0 -232 -34 -314q-76 -172 -340 -172
q-168 0 -251 40t-114 142q-14 43 -25 96q-10 53 -4 172l6 78q0 227 37 299q88 150 324 150q293 0 364 -170q37 -89 37 -321z" />
    <glyph glyph-name="p" unicode="p" horiz-adv-x="907" 
d="M246 655q2 29 -23 -22q-49 -96 -43 -117q2 -4 15 12q48 58 51 127zM449 133q142 0 132 389q-5 199 -32 258q-20 56 -92 56t-101 -43t-28 -148l2 -311q0 -94 18 -137q31 -63 101 -64zM176 946q27 0 33 2q37 20 63 -24t43 -50q35 -8 93 40t98 49q125 1 204 -53t101 -154
q16 -65 16 -200q0 -134 -9 -191t-11 -70q-12 -143 -95 -218t-229 -75q-35 0 -79 48t-74 36l6 -319q0 -39 -36 -61t-71 -25l-36 -3q-19 0 -45 -2t-34 -1t-20 2t-12 71l-2 1141q0 57 96 57z" />
    <glyph glyph-name="q" unicode="q" horiz-adv-x="905" 
d="M414 147q127 0 129 185l6 264q2 117 -21 149q-6 8 -9 34q-7 58 -83 63q-31 2 -51 -12q-21 -14 -27 -28q-6 -15 -12 -41t-20 -63t-23 -198q-2 -72 21 -269q16 -84 90 -84zM377 -29q-119 1 -203 61t-106 158q-14 80 -7 179q-10 121 0 190q29 180 74 262q74 135 264 135
q49 0 97 -36t77 -41q6 1 40 37t55 34q2 0 51 -9t59 -26q10 -16 16 -25q6 -8 10 -28q3 -20 6 -34t3 -58l-27 -954q-2 -66 -56 -102t-110 -22t-64 32q-7 16 3 81l-6 240q-43 14 -91 -30t-85 -44z" />
    <glyph glyph-name="r" unicode="r" horiz-adv-x="616" 
d="M233 -6h-32q-51 0 -66 -3t-37 4q-8 4 -8 23v43l-8 799q0 70 17 85t100 16h24q78 0 113 -130q18 6 46 43t60 69q33 32 79 32q93 0 91 -84v-25q2 -49 -17 -69t-63 -25q-98 -8 -118 -14t-39 -35q-63 -86 -62 -141l23 -506q2 -66 -10 -74t-93 -8zM461 1090l4 7q-1 -4 -4 -7z
M444 1085q10 0 17 5l-8 -15l-21 10h12zM465 1097v1q-2 12 -21 35l60 32z" />
    <glyph glyph-name="s" unicode="s" horiz-adv-x="813" 
d="M193 766l-5 -8q0 -72 29 -76q18 -4 23 20q6 41 -19 58zM285 239q0 -15 -6 -21t1 -12q7 -5 6 -36q-2 -73 122 -68q35 2 53 20t21 34q3 14 2 51t-1 40v19q0 16 -1 20t-3 19t-6 21l-12 19q-7 13 -19 23t-28 23q-16 15 -40 29t-50 30t-100 58q-75 43 -101 68q-57 56 -60 122
q-5 131 55 197t225 69q165 4 277 -56t113 -171q0 -59 -10 -78q-11 -18 -31 -22t-61 -4h-17q-76 -2 -89 9t-15 48t-4 78t-26 63q-24 23 -70 20q-47 -3 -70 -29q-24 -26 -20 -52t2 -56t24 -58t150 -94t196 -140t74 -184t-92 -183t-263 -75t-267 66q-97 69 -97 196q-4 53 18 69
t97 19l26 -2h15q67 4 69 -3t4 -22l5 -24q4 -25 4 -40z" />
    <glyph glyph-name="t" unicode="t" horiz-adv-x="587" 
d="M567 885q0 -35 -1 -45l-2 -20t-11 -10q-10 -1 -17 -2t-32 0t-43 1q-61 -9 -73 -23t-14 -157q-1 -143 7 -279l6 -135v-14q0 -59 8 -75t49 -15q104 6 105 -80q1 -59 -19 -75t-98 -17h-53q-67 0 -103 16q-5 2 -23 25q-19 22 -36 37q-15 15 -29 36t-14 92q18 631 -16 637
l-76 21q-78 0 -88 5t-10 60q0 54 20 70t102 20q59 -14 69 29q5 20 0 48q-5 27 45 64q50 38 88 62q38 25 68 -1t30 -85v-108l45 -9q80 -14 98 -26t18 -47zM481 1124q-5 0 -1 -4t5 -3l-14 -25l-2 38q2 -4 10 -6h2zM485 1117l4 7q6 0 9 -12q0 -7 -13 5z" />
    <glyph glyph-name="u" unicode="u" horiz-adv-x="919" 
d="M827 61q3 -39 -31 -52t-67 -9l-35 6q-42 -2 -66 41q-56 102 -142 -3q-48 -60 -89 -60q-164 -6 -252 100q-57 76 -57 215l-2 520q0 63 27 103t77 34t70 -11t40 -29t24 -70l22 -527q2 -73 7 -103t25 -52t60 -21q76 1 102 53t21 179l-20 479q-2 68 15 83t97 17l25 2
q80 2 99 -12t22 -84z" />
    <glyph glyph-name="v" unicode="v" horiz-adv-x="890" 
d="M856 881q0 -4 -12 -50l-226 -700q-20 -70 -159 -70q-137 -45 -180 68l-236 664q-6 11 -16 33t-18 36q-7 14 -7 19q0 35 26 51t91 16q117 35 133 -16l137 -445q6 -23 12 -87q7 -64 21 -100t47 -34q22 0 44 117q21 117 22 119q78 250 92 411q3 25 33 33t57 4l28 -2
q111 1 111 -67z" />
    <glyph glyph-name="w" unicode="w" horiz-adv-x="1431" 
d="M1376 831q0 -16 -8 -45l-184 -731q-6 -27 -18 -39t-23 -13q-10 -1 -33 2t-68 -2q-154 -17 -172 36l-77 395q-8 53 -29 129q-20 76 -43 70q-40 -7 -45 -58q-10 -87 -17 -112l-100 -379q-13 -49 -35 -61t-44 -16q-23 -3 -31 -5q-72 -20 -147 4t-89 78l-199 750
q-10 37 -10 45q0 33 52 57t104 16q8 -2 22 -3q20 -1 38 -7t25 -29q7 -22 11 -39l111 -413q4 -14 17 -80q27 -139 56 -135q25 11 35 151l6 56q61 272 107 381q18 42 63 78t101 36t94 -43q39 -43 57 -100l74 -258q4 -14 10 -85q15 -173 57 -177q20 -2 41 215l41 315
q4 37 39 59t68 27l31 2q112 0 112 -72z" />
    <glyph glyph-name="x" unicode="x" horiz-adv-x="835" 
d="M605 -2q-33 0 -37 2t-16 7q-11 5 -18 24q-6 20 -10 32l-24 99q-57 236 -97 231q-20 -2 -32 -41q-13 -39 -23 -94t-24 -80l-66 -115q-12 -25 -66 -53t-94 -12q-36 2 -60 24t-22 42t12 35t15 27q6 12 13 22t29 46t41 66q127 204 121 234t-132 251l-41 74q-23 57 -23 60
q-4 72 111 71h43q63 0 79 -7t33 -44l50 -96q18 -35 22 -83t13 -74q10 -26 32 -27t28 17t10 45q3 28 7 40l78 178q15 35 111 47l32 4q45 0 73 -20t24 -51q0 -14 -29 -62q-164 -264 -172 -300q-14 -61 129 -304l49 -82q43 -90 37 -104q-6 -13 -9 -19q-2 -6 -18 -8l-24 -3
t-33 0t-57 1h-65z" />
    <glyph glyph-name="y" unicode="y" horiz-adv-x="907" 
d="M154 -260q0 6 20 26t33 44q92 106 96 178t-209 651l-71 188q-15 37 -15 63q-1 60 119 60q51 0 103 -24q53 -24 63 -60q8 -38 21 -104q104 -523 141 -508q23 13 46 124q23 112 29 136l84 340q29 115 154 96q52 -11 68 -27q16 -17 16 -40l10 -29q0 -9 -6 -29l-424 -1052
q-20 -57 -139 -117q-45 -29 -92 8t-47 76z" />
    <glyph glyph-name="z" unicode="z" horiz-adv-x="722" 
d="M539 -20h-400q-61 0 -76 16q-14 16 -18 21t-11 28t-14 41q-6 18 -2 50t23 48q135 137 264 333t117 253q-6 25 -76 26t-137 -12l-68 -12q-73 0 -97 18t-24 73q0 57 20 73t99 16l416 -16q81 0 103 -18t22 -87q4 -25 -2 -43q-57 -152 -383 -651q83 -25 194 6l43 15
q74 0 100 -18t26 -74t-20 -71q-19 -15 -99 -15z" />
    <glyph glyph-name="braceleft" unicode="{" 
d="M682 528q0 84 -40 123t-140 39t-134 -49t-31 -133q1 -29 4 -75t3 -68q0 -250 160 -250q71 0 96 19q24 18 36 28t20 37t14 43t6 56v81zM614 1064q0 182 -116 183q-65 0 -107 -18q-53 -29 -53 -217q0 -94 48 -158t128 -63q36 0 68 31t32 242zM252 720q0 20 -27 49t-57 59
t-57 82t-27 108q0 227 123 309q78 53 287 53q403 0 403 -356q0 -66 -35 -119q-36 -53 -70 -91t-34 -70t19 -56t47 -45q28 -20 56 -49q68 -70 64 -225q-4 -199 -99 -295t-311 -96t-336 102q-118 102 -135 299q-6 92 12 151q17 59 46 84t58 39q73 34 73 67z" />
    <glyph glyph-name="bar" unicode="|" horiz-adv-x="1462" 
d="M805 965l-64 4q-32 0 -43 -21q-9 -52 -4 -112q7 -70 -1 -132t3 -73q8 -17 26 -19t46 4q29 6 41 7q55 1 89 63t28 113q-12 96 -36 131t-85 35zM686 412v-70q0 -47 -12 -60q-12 -14 -64 -14h-22q-74 0 -89 16t-16 87l4 610q-1 43 35 63q36 19 62 19q65 24 149 12l27 -4
q127 0 224 -46q97 -45 99 -149q4 -218 -65 -282q-79 -75 -211 -65q-62 5 -81 2q-20 -3 -26 -18q-14 -33 -14 -101zM1307 651q0 238 -168 406t-416 168t-406 -163t-157 -411q0 -186 116 -349t285 -222q43 -14 97 -8q53 6 75 6q238 0 406 168t168 405zM1421 651
q-1 -291 -205 -495t-495 -205q-291 0 -496 205q-205 206 -205 496t205 495t496 205q58 0 108 -20t68 -23q172 -49 300 -164t176 -282t48 -212z" />
    <glyph glyph-name="braceright" unicode="}" 
d="M881 410l-29 24l-16 -37l20 -37q21 15 25 50zM688 918q0 137 -51 219t-143 82t-140 -81t-47 -212q0 -131 70 -204t164 -73t121 66q26 66 26 203zM76 354q0 63 121 68q71 2 115 -34t44 -92t34 -110t77 -53q67 0 99 8t62 40t38 102t2 188q0 12 -23 27q-36 32 -83 32
l-116 -6q-354 0 -354 445q0 209 112 304t337 95q135 0 218 -53t136 -156q29 -57 37 -138t8 -284l-18 -102l18 -141q0 -208 -36 -275q-13 -27 -46 -72q-113 -152 -356 -151q-426 0 -426 358z" />
    <glyph glyph-name="asciitilde" unicode="~" horiz-adv-x="937" 
d="M193 766h-17l-8 -8q4 -25 12 -41l13 16v33zM498 827q-70 0 -111 -63t-39 -162q-14 -37 -14 -137l-2 -167q1 27 6 -34l16 -186q0 -54 -31 -64t-68 -5q-36 5 -42 5q-96 0 -114 25q-17 25 -17 63q8 174 10 289l-10 459q-2 61 19 82q22 20 77 31q28 4 54 -42t55 -44t113 45
t137 43q182 0 256 -111q51 -86 41 -217l4 -518q-2 -12 -4 -52t-11 -43q-10 -3 -22 -9t-62 -7h-24q-83 0 -101 16t-18 85l-23 514l-2 91q0 91 -39 107q-16 6 -34 6z" />
    <glyph glyph-name="uni0080" horiz-adv-x="1116" 
d="M678 557q18 2 -6 125t-69 246q-44 123 -75 125q-38 5 -110 -225t-39 -257t83 -35t82 -6q32 4 81 16t53 11zM150 127q-105 -1 -105 53q1 33 31 133q290 946 373 1020q38 38 83 22q20 -7 25 -7q51 16 78 -8t47 -83l348 -1062q12 -33 12 -68q-262 -39 -268 74q-2 39 7 78
q23 100 -36 114q-41 8 -207 9t-202 -11q-33 -14 -46 -61t-11 -86l4 -39q-10 -33 -43 -52t-62 -22zM360 1448h-6q-82 0 -100 17t-18 100q0 39 28 65t55 33l27 6q53 0 87 -28t40 -56l6 -29q0 -74 -18 -91t-101 -17zM743 1448h-6q-47 0 -77 30t-37 58l-7 29q0 72 20 88t101 16
h6q47 0 76 -28t35 -56l6 -29q0 -74 -18 -91t-99 -17z" />
    <glyph glyph-name="uni0081" horiz-adv-x="1116" 
d="M387 455q15 0 303 -9l29 3q0 12 -54 224t-108 404v2q-6 -8 -20 -15t-19 -15q-98 -256 -160 -574q-2 -12 0 -20h29zM1106 72q0 -71 -92 -69q-42 1 -70 5q-27 4 -78 27t-67 57q-1 80 -21 142t-61 75q-45 11 -189 15t-211 -25q-29 -23 -33 -131t-26 -125q-33 -31 -145 -41
q-63 -16 -93 6q-29 23 -28 64q0 6 30 129t89 286q4 10 24 36q21 26 23 35t2 31t4 32l205 665q18 58 35 70t90 12h112q70 0 85 -10t36 -72l76 -227q0 -51 4 -61t17 -30q13 -19 16 -26l233 -760q17 -61 25 -84q8 -22 8 -26z" />
    <glyph glyph-name="uni0082" horiz-adv-x="972" 
d="M426 -436h-18q-49 0 -77 19t-28 50t21 62l63 106q6 12 6 64q15 37 35 48t78 11t82 -22q22 -23 2 -99l-39 -151q-15 -64 -33 -76t-92 -12zM504 115q82 0 132 62t54 140v54q0 31 -1 41t3 25t7 17q15 12 42 13h41q98 7 140 -39q18 -20 18 -55q0 -406 -430 -406
q-213 0 -320 79q-106 79 -127 249q0 10 5 64q4 54 4 133v63l-2 66v143q0 256 6 330t41 127q104 166 381 165q218 0 330 -98t112 -287q0 -45 -42 -77t-87 0q-27 0 -51 7t-50 40q-28 33 -32 88t-62 117t-116 63q-139 0 -162 -111q-2 -36 1 -166t3 -182q-18 -72 -17 -238
t12 -253q11 -88 48 -131t119 -43z" />
    <glyph glyph-name="uni0083" horiz-adv-x="909" 
d="M160 1180h20q18 43 25 77h-37v-36l8 24q0 -21 -8 -33t-8 -32zM809 696v-6q0 -70 -22 -85t-105 -15q-113 23 -210 20q-97 -2 -116 -8q-42 -14 -32 -206t59 -191l365 -8q48 -1 72 -21t24 -41l-2 -20v-53q0 -29 -3 -32l-9 -12t-11 -9q-6 -1 -17 -4q-10 -3 -24 -3h-575
q-82 0 -101 16q-18 16 -16 72q13 360 8 649l-8 525q-6 70 14 87t103 17l459 -8q48 0 78 -27t36 -55l6 -27q0 -59 -12 -66q-24 -14 -60 -14h-61l-239 -2q-56 0 -54 -28q-35 -295 11 -348q36 -18 237 0l78 6q84 -3 106 -19t21 -84zM594 1749h55q33 0 35 -4q2 -5 0 -17t-2 -22
l2 -42q0 -27 -31 -56l-133 -131q-42 -43 -68 -43h-42q-23 2 -36 -1t-19 3q-5 6 -5 7l2 38q0 27 27 65l94 144q-1 6 15 26t32 26q16 7 74 7z" />
    <glyph glyph-name="uni0084" horiz-adv-x="1189" 
d="M205 1139q25 10 24 41v49q-4 -6 -6 -12t-8 -9zM956 4h-145q-66 0 -86 11q-21 11 -27 31l-307 810q-28 77 -40 115t-20 44q-9 7 -20 7q-28 0 -16 -74l6 -24q15 -168 28 -462t5 -425q0 -21 -24 -27t-48 -2t-41 0q-67 -41 -101 -11t-34 107l4 1162q0 68 16 81t99 19l108 8
q150 6 185 -86l274 -715q9 -28 23 -65q13 -37 31 -92t18 -82t1 -34q2 -12 9 -14t29 5q33 80 -31 725l-27 250q-1 68 17 84t100 16h23q82 0 99 -15t17 -85l-6 -1162q0 -70 -18 -85t-101 -15zM240 1503v31q0 68 67 123q69 55 143 55t173 -55q32 -17 68 -50q36 -34 43 -34
t28 18q20 18 20 23q12 55 88 55q62 0 56 -61q-2 -70 -67 -124t-130 -54t-99 13t-118 66q-8 6 -36 45t-36 39q-14 0 -48 -8t-36 -14t-6 -38q-6 -50 -52 -50h-25q-33 0 -33 20z" />
    <glyph glyph-name="uni0085" unicode="&#x85;" horiz-adv-x="1067" 
d="M684 887q2 82 -19 172q-23 90 -51 121q-28 30 -111 30t-101 -11t-33 -52q-16 -41 -17 -205l-2 -436q-2 -121 26 -181t120 -61q59 0 88 9t67 44q25 25 31 433zM528 133q-174 -1 -282 63t-131 177q-13 54 -13 487l-2 148q2 188 100 269t334 81t326 -197q18 -43 36 -228
t6 -405q-11 -220 -67 -308q-56 -87 -307 -87zM336 1450h-6q-82 0 -101 16q-18 16 -18 88v13q0 41 31 67t61 29l31 6q47 0 77 -28t35 -56l9 -29q-1 -74 -19 -90t-100 -16zM592 1554v13q0 70 19 86t102 16h6q45 0 75 -28t35 -56l7 -29q0 -42 -31 -68t-62 -32l-30 -6
q-82 0 -102 16q-19 16 -19 88z" />
    <glyph glyph-name="uni0086" horiz-adv-x="1116" 
d="M129 641v690q0 33 40 37t81 -8l41 -14q72 0 89 -14t17 -79l-22 -665q0 -131 24 -174q21 -31 71 -60t95 -28q138 0 147 113q1 26 -1 76t-2 73l22 665q0 70 28 97t87 -2q92 0 94 -76l2 -629q0 -147 -29 -297t-73 -156q-548 -87 -668 142q-43 88 -43 309zM477 1554
q0 -42 -31 -68t-61 -32l-33 -4q-82 0 -100 16t-19 88v13q0 41 31 67t62 29l30 6q84 0 102 -16t19 -86v-13zM858 1554q0 -72 -18 -88t-96 -16t-116 57q-13 20 -14 47v13q0 41 31 67t64 29l30 6q83 0 101 -16t18 -86v-13z" />
    <glyph glyph-name="uni0087" horiz-adv-x="907" 
d="M336 340q0 -152 78 -152q106 0 135 45q7 27 -1 87q-9 61 -9 86q18 102 -17 106q-106 10 -146 -45t-40 -127zM461 844q-31 0 -77 -38t-47 -68t-28 -50q-27 -18 -51 -29l-27 -8q-67 -1 -91 15t-23 55q0 111 89 174t258 63t257 -94q39 -45 51 -92t10 -151l-18 -435
q-2 -90 -16 -108q-23 -25 -76 -25h-23q-35 1 -47 15t-18 32t-29 26t-45 -10q-22 -17 -48 -40q-28 -23 -69 -23q-131 0 -217 65q-86 64 -86 192t54 197t178 99q12 2 65 -11t97 -13q61 0 61 56q0 2 -6 38l2 72q0 77 -37 92q-12 4 -43 4zM645 1343q41 0 65 -20t25 -52
q0 -32 -41 -61l-162 -110q-24 -16 -50 -48t-46 -32q-49 0 -63 10q-15 10 -15 26t-1 23q-1 6 1 17t11 19q8 9 18 20l94 90q20 18 36 51q15 33 31 50t48 17h49z" />
    <glyph glyph-name="uni0088" horiz-adv-x="907" 
d="M309 311q1 -68 19 -131t56 -63q38 1 77 25t67 71t17 164l-13 135q-223 -10 -223 -201zM250 637h-21q-63 0 -85 14t-21 54q0 109 87 169t250 62q163 0 251 -92q35 -41 46 -86t11 -152v-461q0 -63 -20 -78t-99 -14q-8 -1 -15 13t-33 24q-27 10 -107 -32t-134 -42
q-122 0 -192 77t-70 204t50 182t176 86q12 4 64 4q132 0 147 41v52q0 152 -101 161q-57 5 -84 -31q-28 -36 -28 -74t-3 -50q0 -31 -69 -31zM539 1106q0 -72 -105 -72q-29 0 -36 6t-18 22t-26 34l-143 170q-31 34 -35 72t5 52t48 13h52q63 0 76 -7t49 -59l106 -168
q27 -38 27 -63z" />
    <glyph glyph-name="uni0089" horiz-adv-x="907" 
d="M336 340q0 -152 78 -152q106 0 135 45q7 27 -1 87q-9 61 -9 86q18 102 -17 106q-106 10 -146 -45t-40 -127zM461 844q-31 0 -77 -38t-47 -68t-28 -50q-27 -18 -51 -29l-27 -8q-67 -1 -91 15t-23 55q0 111 89 174t258 63t257 -94q39 -45 51 -92t10 -151l-18 -435
q-2 -90 -16 -108q-23 -25 -76 -25h-23q-35 1 -47 15t-18 32t-29 26t-45 -10q-22 -17 -48 -40q-28 -23 -69 -23q-131 0 -217 65q-86 64 -86 192t54 197t178 99q12 2 65 -11t97 -13q61 0 61 56q0 2 -6 38l2 72q0 77 -37 92q-12 4 -43 4zM719 1110q0 -27 -27 -47t-73 -21
t-62 37q-7 45 -34 88q-49 78 -81 74q-80 -147 -133 -154l-41 -4q-66 -8 -84 -3t-18 32t31 68l90 139q35 47 47 53t76 6h67q66 0 80 -7t45 -56l90 -137q27 -41 27 -68z" />
    <glyph glyph-name="uni008A" horiz-adv-x="907" 
d="M332 324q0 -74 22 -122t60 -48q98 0 129 47q14 25 -6 184q25 113 -15 115q-114 12 -152 -45t-38 -131zM664 45h-23q-39 0 -52 27q-13 28 -31 28t-90 -34q-73 -34 -124 -33q-246 0 -246 260q0 123 54 189t172 93q14 4 99 -2t109 9q20 8 5 69q14 66 -17 121t-86 47
q-60 -4 -76 -14t-19 -48q-3 -39 -23 -55t-76 -16h-21q-61 0 -83 15t-21 57q0 98 82 132t247 34q234 0 273 -154q12 -47 14 -83t8 -138q21 -108 27 -336l4 -76q4 -61 -14 -77t-92 -15zM96 1221q0 72 20 87t85 15q64 0 86 -15q21 -16 33 -36t12 -38q0 -93 -14 -102
q-5 -4 -12 -12t-19 -9q-11 -1 -27 -3t-39 -2h-8q-80 0 -98 16t-19 88v11zM721 1210q0 -66 -29 -84t-88 -20h-8q-113 0 -117 104q0 29 30 57t60 42l31 14q82 0 101 -16t20 -86v-11z" />
    <glyph glyph-name="uni008B" horiz-adv-x="907" 
d="M336 340q0 -152 78 -152q106 0 135 45q7 27 -1 87q-9 61 -9 86q18 102 -17 106q-106 10 -146 -45t-40 -127zM461 844q-31 0 -77 -38t-47 -68t-28 -50q-27 -18 -51 -29l-27 -8q-67 -1 -91 15t-23 55q0 111 89 174t258 63t257 -94q39 -45 51 -92t10 -151l-18 -435
q-2 -90 -16 -108q-23 -25 -76 -25h-23q-35 1 -47 15t-18 32t-29 26t-45 -10q-22 -17 -48 -40q-28 -23 -69 -23q-131 0 -217 65q-86 64 -86 192t54 197t178 99q12 2 65 -11t97 -13q61 0 61 56q0 2 -6 38l2 72q0 77 -37 92q-12 4 -43 4zM316 1223q-14 0 -47 -22
q-34 -22 -38 -35t0 -28q10 -38 -30 -38q-102 0 -103 76q0 66 69 120t143 56q74 0 171 -52q25 -12 42 -38t29 -46t18 -20q7 0 40 16t34 22t0 35q-1 30 7 44t46 14t66 -21q27 -22 23 -57q-2 -68 -66 -121t-125 -53q-60 0 -75 16q-14 16 -102 74t-102 58z" />
    <glyph glyph-name="uni008C" horiz-adv-x="907" 
d="M281 330q0 -59 42 -133t87 -74q140 0 169 49t-12 193q25 109 -4 116q-76 25 -179 -23t-103 -128zM457 844q-160 0 -168 -107q-8 -90 -43 -96q-76 -16 -90 -2q-18 13 -36 23l-22 13q-10 8 -10 36q0 117 95 185t268 67q98 -1 155 -19q58 -18 104 -70t72 -110t23 -162
l-10 -448q0 -74 -17 -103l-4 -12q-4 -35 -28 -44q-39 -15 -107 28q-25 14 -43 28q-51 27 -82 11t-87 -46q-56 -31 -95 -30q-272 0 -273 286q0 119 31 184t115 99q6 2 21 24q14 21 22 25t46 -18t47 -18q9 3 111 2t128 16q20 16 -11 57l-10 16q-4 77 -29 131t-73 54z" />
    <glyph glyph-name="uni008D" horiz-adv-x="808" 
d="M504 -159q0 -38 -27 -91l-35 -74q-10 -20 -19 -48t-15 -37q-17 -25 -74 -25h-8q-41 0 -67 19t-26 46t17 60l67 155q47 100 109 101q30 0 54 -34t24 -72zM43 623q0 61 7 95t11 44t25 38q20 28 25 36q78 129 292 129q348 0 349 -277q0 -41 -25 -58t-96 -18q-11 2 -27 8
t-47 46q-31 39 -41 100q-2 20 -38 40t-68 21q-32 -1 -66 -31q-33 -30 -37 -58t-1 -96t3 -95l-8 -322q6 -67 50 -103t90 -36t75 44t31 85q3 62 71 96l23 13q75 0 101 -16t26 -64q0 -121 -95 -192q-95 -70 -253 -70t-239 50t-107 165q-10 51 -13 165l-4 87q0 2 -7 57
q-7 56 -7 117z" />
    <glyph glyph-name="uni008E" horiz-adv-x="868" 
d="M420 772q-58 0 -76 -34t-18 -124q-18 -35 -7 -39q23 -20 101 -20t106 20q4 4 -12 29q0 96 -18 132t-76 36zM563 279q0 39 68 71q65 0 91 -14t26 -53q0 -115 -86 -182t-238 -66q-260 0 -315 194q-2 13 6 71q7 58 7 136t11 101l-37 6q0 199 98 289t230 102q180 14 253 -73
t73 -304v-47q0 -88 -168 -88q-53 8 -160 12t-109 -10q-18 -18 13 -59q0 -179 116 -179t121 93zM637 1403q43 -1 69 -21t25 -40v-26q0 -8 -3 -14l-6 -12t-8 -10q-4 -4 -12 -11t-18 -14l-170 -118q-36 -24 -46 -62q-10 -39 -36 -41q-102 0 -102 72q0 25 26 63l105 168
q35 51 47 59t78 7h51z" />
    <glyph glyph-name="uni008F" horiz-adv-x="868" 
d="M537 559q8 8 -5 45l-2 14q0 217 -106 218q-57 0 -86 -52t-30 -127q-1 -76 14 -90q34 -37 110 -35t105 27zM748 526q0 -59 -16 -71t-91 -19q-6 2 -17 3t-45 5q-189 22 -256 -1q-24 -7 -30 -19q-3 -16 4 -70q0 -176 119 -176q51 0 67 10q15 10 19 50t25 53q22 14 83 14h11
q65 0 87 -15t21 -54q0 -106 -71 -142t-236 -35q-260 0 -316 191v149q-2 109 -4 147t2 40q10 123 54 217q0 2 -5 3t23 30q32 44 100 74t144 30q299 0 328 -367v-47zM518 1106q0 -72 -104 -72q-16 0 -22 2q-5 2 -1 14t-29 46l-159 174q-37 41 -39 65q-8 29 -1 48t46 20h53
q60 0 74 -7t49 -59l107 -168q26 -38 26 -63zM700 1090q9 -3 29 -13v-20q-19 10 -22 18q-2 8 -7 15z" />
    <glyph glyph-name="uni0090" horiz-adv-x="868" 
d="M209 565q0 12 -15 27t-22 31q-12 -31 -11 -95t11 -98q37 31 37 135zM551 567q8 12 -6 66q0 242 -119 241q-61 0 -94 -57t-34 -141t13 -101q37 -41 122 -39t118 31zM129 842q0 4 29 42q30 38 104 72q74 33 160 33q332 0 364 -407v-52q0 -66 -18 -80t-100 -20q-8 2 -20 3
t-51 6q-143 19 -225 11t-90 -31q-9 -24 1 -63l2 -16q0 -197 133 -197q56 -1 74 11t21 56t28 59t92 16h12q73 -1 97 -17t24 -61q0 -119 -79 -157t-263 -38q-289 0 -350 211q-4 14 -4 35l4 131q-2 127 -5 164t1 43q12 137 59 242v4zM698 1110q0 -27 -26 -47q-26 -21 -48 -21
h-28l-18 2q18 10 -3 29l-45 39l-100 117l-102 -94q-20 -18 -82 -50q-23 -16 -2 -30l18 -13q23 -14 12 -14q-29 2 -79 37t-50 55t31 60l90 139q35 47 47 53t76 6h68q66 0 80 -7t45 -56l90 -137q26 -41 26 -68z" />
    <glyph glyph-name="uni0091" horiz-adv-x="868" 
d="M524 594v29q0 106 -20 143t-84 37t-84 -36t-21 -132v-41h209zM786 514q0 -70 -18 -86t-98 -16h-355v-64q0 -102 24 -143t89 -41q94 0 100 106q4 38 29 54t92 16h13q72 0 96 -17t24 -61q0 -127 -95 -201t-263 -73q-289 0 -350 215q-12 49 -13 176l-2 242q0 197 81 279
t284 81q203 0 283 -90t79 -326v-51zM354 1200q0 -72 -18 -88t-103 -16h-6q-82 0 -99 16t-17 88v10q0 72 17 87t99 16h6q85 -1 103 -17t18 -86v-10zM735 1200q0 -72 -18 -88t-101 -16h-6q-80 0 -99 16t-19 88v10q0 70 18 86t100 17h6q82 -1 100 -17t19 -86v-10z" />
    <glyph glyph-name="uni0092" horiz-adv-x="444" 
d="M113 794q0 154 102 154h25q84 0 92 -6t8 -76q-23 -457 0 -764q2 -32 -34 -56t-73 -34l-34 -10q-66 -39 -94 -8t-23 108l29 625zM426 1403q42 1 68 -21t26 -40t-9 -23q-47 -21 -65 -41l-141 -152q-53 -57 -69 -62t-52 -5t-52 8q-15 8 -15 35t26 67l107 168q35 51 47 59
t78 7h51z" />
    <glyph glyph-name="uni0093" horiz-adv-x="444" 
d="M223 2h-24q-82 0 -101 15q-18 15 -16 85l16 711v30q0 21 1 27t2 24t4 22q3 6 7 18t28 24q23 12 59 11h24q81 1 99 -15t18 -88q-10 -35 -22 -98t-15 -263q-2 -200 37 -403q8 -48 -16 -74t-101 -26zM289 1106q0 -72 -105 -72q-25 0 -31 4q-5 4 -13 20t-23 32l-123 151
q-14 18 -61 47t-48 39q-4 29 25 53t70 23h51q63 0 77 -7t48 -59l106 -168q27 -40 27 -63z" />
    <glyph glyph-name="uni0094" horiz-adv-x="444" 
d="M340 102q0 -66 -34 -80t-83 -20h-24q-76 0 -100 27t-17 77q29 203 29 379t-15 250l-14 74q0 70 15 87t102 40l45 12q23 6 37 9t26 6t21 -4q10 -7 11 -18t2 -17t0 -26t-1 -32v-764zM487 1111q-1 -26 -27 -46q-72 -54 -142 33q-44 53 -72 106l-31 51q-100 -211 -149 -211
h-17q-115 0 -115 72q0 25 29 66l90 139q35 47 47 53t78 6h68q66 0 80 -7t43 -56l90 -137q28 -43 28 -69z" />
    <glyph glyph-name="uni0095" horiz-adv-x="444" 
d="M225 2h-24q-82 0 -101 15q-18 15 -16 85l8 729q0 58 20 71q6 6 34 18t55 30l24 17q45 33 72 23q49 -19 45 -126q-39 -339 -27 -516l27 -246q8 -70 -12 -85t-105 -15zM53 1096h-6q-82 0 -99 15t-18 87v12q0 62 31 82t86 21h6q49 0 79 -29t36 -57l6 -29q68 -63 -22 -90
q-39 -12 -99 -12zM496 1198q0 -43 -20 -51t-50 -7q-29 1 -41 -16q-4 2 -34 -3q-31 -5 -65 15t-34 62v12q0 41 31 67t61 30l33 6q80 -1 99 -17t20 -86v-12z" />
    <glyph glyph-name="uni0096" horiz-adv-x="937" 
d="M201 630q0 13 -10 42q-9 29 -9 51h-37v-88q7 -16 13 -58t14 -59q4 7 10 16q2 13 10 48t9 48zM788 145q0 -63 -15 -76t-59 -15t-52 1q-59 4 -73 77q-5 28 -9 79l-25 414q-9 96 -29 148t-75 52q-102 0 -107 -215l-6 -422q0 -36 -31 -70t-61 -48l-29 -15q-74 -1 -89 13
t-15 77q-8 504 0 686q2 49 28 58q27 8 60 -10q98 -53 143 -33l51 33q3 2 15 15q37 42 112 42q164 0 230 -102q37 -53 36 -197v-492zM623 1075q-40 1 -49 11q-50 57 -124 88q-74 32 -86 32t-36 -14t-25 -22l-5 -20q-3 -13 -7 -27q-7 -23 -45 -23q-102 0 -103 76q0 66 69 120
q68 54 142 56q74 0 172 -52q43 -22 65 -51q23 -28 31 -28t24 11q17 11 18 15q12 78 65 78q108 0 102 -76q-3 -68 -67 -121t-141 -53z" />
    <glyph glyph-name="uni0097" horiz-adv-x="905" 
d="M422 827q-94 -1 -94 -267v-81q0 -181 12 -241t35 -74t65 -14t71 47q28 47 33 93t6 100t1 126q0 70 -4 140t-37 120q-33 51 -88 51zM784 486q0 -215 -30 -289q-72 -158 -305 -158q-283 0 -338 194q-15 74 -15 283t37 281q78 137 291 137q264 0 328 -156q32 -77 32 -292z
M657 1403q43 -1 69 -21t26 -40t-6 -25q-6 -7 -24 -19q-17 -12 -34 -28l-145 -137q-43 -41 -63 -53t-70 -13q-50 0 -56 10t-6 32t29 60l104 168q35 51 47 59t78 7h51z" />
    <glyph glyph-name="uni0098" horiz-adv-x="905" 
d="M551 516q0 70 -4 139q-4 170 -107 170q-40 0 -68 -39t-36 -87t-8 -233t18 -256t98 -71q43 0 68 51q25 50 31 98t7 102q1 56 1 126zM784 486q0 -215 -30 -289q-68 -158 -305 -158q-283 0 -338 194q-15 74 -15 283t37 281q78 137 291 137q264 0 328 -156q32 -77 32 -292z
M539 1106q0 -72 -105 -72q-37 0 -50 7t-50 46l-160 175q-69 76 -15 118q28 23 70 23h52q63 0 76 -7t49 -59l106 -168q27 -38 27 -63z" />
    <glyph glyph-name="uni0099" horiz-adv-x="905" 
d="M551 516q0 70 -3 142t-31 124q-28 54 -74 54q-47 0 -73 -42t-34 -87t-8 -132v-96q0 -185 12 -250t36 -83t58 -18q81 -2 100 61q6 26 7 66q2 41 5 61t4 74q1 56 1 126zM784 487q0 -216 -30 -290q-68 -158 -305 -158q-283 0 -338 194q-15 74 -15 283t37 281q76 135 291 135
q266 0 328 -156q32 -73 32 -289zM719 1110q0 -27 -27 -47q-28 -21 -58 -21t-52 32t-38 70q-17 38 -46 66t-61 24q-33 -5 -55 -37q-22 -31 -32 -65q-27 -90 -53 -90h-16q-115 0 -115 74q0 23 31 64l90 139q35 47 47 53t76 6h67q66 0 80 -7t45 -56l90 -137q27 -41 27 -68z" />
    <glyph glyph-name="uni009A" horiz-adv-x="905" 
d="M324 474q0 -192 18 -258q18 -67 98 -66q49 0 85 32t40 82q25 187 19 375q-4 74 -49 135q-45 62 -95 62t-74 -43q-26 -43 -34 -85t-8 -234zM444 39q-281 0 -338 194q-14 79 -14 284q0 206 37 278q76 135 283 135q274 0 336 -156q37 -88 36 -296t-34 -281
q-68 -158 -306 -158zM131 1200v10q-1 72 19 87t112 16q35 -12 74 -44t40 -67q1 -36 -31 -64t-64 -36l-33 -6q-82 0 -100 16q-17 16 -17 88zM754 1200q0 -42 -31 -68t-61 -30l-31 -6q-80 0 -100 17q-19 17 -19 87q0 10 10 34q31 76 109 79h6q82 1 99 -15t18 -88v-10z" />
    <glyph glyph-name="uni009B" horiz-adv-x="905" 
d="M551 470q0 116 -3 186t-32 114q-29 45 -77 45q-82 0 -103 -110q-8 -47 -8 -249t12 -247q18 -74 92 -74q43 0 74 54t38 110q7 55 7 171zM784 485q0 -214 -30 -290q-68 -156 -305 -156q-283 0 -338 192q-15 92 -15 294t37 270q78 137 291 137q264 0 328 -156
q32 -77 32 -291zM591 1075q-64 0 -99 12q-36 12 -94 49q-58 38 -80 38t-27 -21q-16 -53 -90 -53q-102 0 -103 76q0 66 69 120t143 56q74 0 161 -46q86 -46 102 -44q16 0 17 8q10 57 94 57q51 0 79 -21q27 -22 23 -57q-2 -68 -66 -121t-129 -53z" />
    <glyph glyph-name="uni009C" horiz-adv-x="919" 
d="M782 147q2 -35 -28 -47t-62 -6l-30 4q-39 -2 -61 37q-21 39 -51 46t-74 -48t-81 -55q-145 -6 -227 90q-51 70 -51 194l-2 467q0 131 98 123q41 -4 59 -8t37 -26q18 -23 21 -64l20 -473q2 -94 16 -128t74 -32q62 2 84 49t19 160l-19 430q-2 62 14 76t87 16h22q74 2 90 -11
t19 -75zM664 1403q44 -1 70 -21t26 -49t-41 -71l-158 -175q-35 -39 -50 -46t-52 -7q-102 0 -103 72q0 25 27 63l106 168q35 51 47 59t76 7h52z" />
    <glyph glyph-name="uni009D" horiz-adv-x="919" 
d="M782 147q2 -35 -28 -47t-62 -6l-30 4q-39 -2 -61 37q-21 39 -51 46t-74 -48t-81 -55q-145 -6 -227 90q-51 70 -51 194l-2 467q0 131 98 123q41 -4 59 -8t37 -26q18 -23 21 -64l20 -473q2 -94 16 -128t74 -32q62 2 84 49t19 160l-19 430q-2 62 14 76t87 16h22q74 2 90 -11
t19 -75zM545 1106q0 -72 -103 -72q-37 0 -51 7t-51 46l-160 175q-37 44 -40 70t25 48t71 23h53q63 0 75 -7t48 -59l106 -168q27 -38 27 -63z" />
    <glyph glyph-name="uni009E" horiz-adv-x="919" 
d="M782 147q2 -35 -28 -47t-62 -6l-30 4q-39 -2 -61 37q-21 39 -51 46t-74 -48t-81 -55q-145 -6 -227 90q-51 70 -51 194l-2 467q0 131 98 123q41 -4 59 -8t37 -26q18 -23 21 -64l20 -473q2 -94 16 -128t74 -32q62 2 84 49t19 160l-19 430q-2 62 14 76t87 16h22q74 2 90 -11
t19 -75zM725 1110q0 -27 -27 -47q-28 -21 -60 -21t-54 54t-54 108q-30 53 -72 53q-42 1 -68 -33t-35 -74q-24 -108 -52 -108h-14q-115 0 -115 74q0 23 29 64l90 139q35 47 47 53t76 6h67q66 0 80 -7t45 -56l90 -137q27 -41 27 -68z" />
    <glyph glyph-name="uni009F" horiz-adv-x="919" 
d="M117 324v497q0 35 31 59q32 24 65 29l31 4q74 0 91 -15t15 -77l-6 -487q-2 -90 26 -148t88 -57q60 0 73 69q14 69 14 185v438q0 51 22 69q23 17 66 19q82 6 88 -37q12 -128 16 -418t0 -296q4 -74 -51 -103q-23 -16 -33 -10q-50 30 -94 23q-10 -2 -57 -20t-117 -19
q-152 0 -225 100q-43 59 -43 195zM137 1210q0 41 30 67t60 30l31 6q70 0 90 -22t24 -74q3 -51 -27 -79t-60 -36l-31 -8q-82 0 -99 16t-18 88v12zM518 1210q0 70 18 86t101 17h8q45 0 74 -30t35 -58l6 -31q-14 -36 -45 -62t-53 -32l-23 -6q-80 0 -100 16t-21 88v12z" />
    <glyph glyph-name="uni00A0" unicode="&#xa0;" horiz-adv-x="636" 
d="M573 886q0 -40 -21 -57q-22 -16 -103 -16q-41 20 -46 10q-14 -16 -17 -159t3 -279l4 -135q1 -109 15 -126t41 -18q59 8 83 2t23 -54q0 -50 -19 -66t-98 -17h-53q-92 0 -118 21q-66 48 -82 117q-7 33 -7 88q29 616 -6 622h-63q-124 13 2 129q35 -8 50 -1q29 14 17 106
l-4 28q32 119 142 123q54 2 75 -18q20 -20 21 -78v-160h45q40 0 67 3t36 -1t11 -14t2 -50z" />
    <glyph glyph-name="exclamdown" unicode="&#xa1;" horiz-adv-x="1597" 
d="M984 1157q48 0 228 -27l115 -61q96 -102 134 -185q38 -84 38 -236t-115 -351q-92 -158 -242 -244t-323 -86q-171 1 -321 59t-244 154q-156 164 -156 488q0 244 207 477q51 55 125 112h8q35 4 217 91l-4 4q63 16 159 16t223 -34q128 -34 210 -87q14 -10 10 -25t9 -28
q-301 68 -350 68h-91q-148 0 -224 -36q-19 -9 -79 -36t-117 -77q-56 -50 -78 -102q-9 -19 -36 -73q-78 -152 -78 -332q0 -102 54 -210t97 -152q43 -45 132 -74q8 -2 38 -29t66 -38q35 -11 84 -6t96 1h101l86 15q117 1 262 151t145 367q0 14 7 81t-3 68q-46 143 -160 217
q-50 33 -116 49t-115 15q-220 0 -260 -21q-2 0 -17 -7l-32 -14t-19 -9l-102 -66q-37 -24 -51 -46t-26 -69t-28 -93q-18 -46 -18 -74q0 -76 18 -115t35 -66q43 -76 122 -124t173 -48q130 1 232 99t102 210t-51 176q-51 62 -136 62t-157 -46t-72 -114q0 -117 107 -135l57 25
q-16 2 -40 42t-23 60q0 63 96 64q94 0 94 -113q0 -86 -60 -145t-149 -60q-129 0 -176 88q-4 8 -22 38t-20 55q-1 27 -1 47t15 67t20 78q6 33 17 47t27 24t50 23q33 13 49 23q15 10 103 17t152 7t110 -28t74 -59q26 -29 48 -95t22 -144t-33 -136q-32 -60 -79 -112t-64 -67
q-17 -17 -56 -37t-76 -20l-53 -25h-105q-31 4 -78 -5t-71 7q-8 4 -48 30q-41 26 -69 34t-65 43q-37 34 -53 60t-43 83t-27 159t7 151q7 50 25 88t31 72q11 34 25 51q14 16 48 32t108 60t123 57t146 12q97 -2 145 -2z" />
    <glyph glyph-name="cent" unicode="&#xa2;" 
d="M866 461q0 -170 -297 -275q-16 -12 13 -75l12 -25q0 -61 -25 -98t-65 -37q-74 0 -74 151q0 2 2 4t5 10t5 17q2 7 5 17t3 24t-12 21t-72 30t-108 51t-63 68q-16 39 -23 428v127q42 149 174 221q53 29 64 41q8 20 -2 80l-5 25q6 10 19 29q12 19 17 27q30 52 68 52
q37 0 61 -61t24 -137l-27 -7q83 -18 185 -92t102 -178q0 -43 -75 -75t-113 16q-53 35 -68 133q-2 25 -29 57t-55 31q-28 0 -52 -43q-26 -43 -34 -84l-4 -438q4 -84 24 -130t80 -44t84 26t21 54q-4 30 -9 61q-6 31 18 53t87 21h23q70 -1 93 -17t23 -59z" />
    <glyph glyph-name="sterling" unicode="&#xa3;" 
d="M-8 734v36q0 70 19 86t104 16q6 -2 14 -5q49 -18 55 -3q16 20 -4 49l-6 15q0 116 24 184t76 129q94 115 340 115q186 0 290 -77t104 -218q0 -55 -33 -81t-103 5q-57 29 -92 51t-64 73q-30 50 -59 85t-71 35q-162 0 -162 -256q-8 -86 14 -115q40 -35 135 2l37 12
q84 0 106 -16t21 -86v-20q0 -46 -8 -48q-9 -2 -35 2t-59 5q-176 29 -189 -23q-18 -74 -23 -202t3 -227t23 -101q137 -26 296 -13l52 7q24 -3 63 -6q38 -3 58 -8q50 -13 51 -70q-1 -9 -13 -31q-41 -73 -118 -68l-695 33q-80 4 -97 18t-17 82v6q0 52 10 59q8 5 28 0t76 -5
l39 -2q16 6 9 91t-19 201t2 246q0 19 -72 11q-34 -1 -68 -5t-38 1t-4 31z" />
    <glyph glyph-name="yen" unicode="&#xa5;" horiz-adv-x="1110" 
d="M154 425q-10 -17 18 -32q47 45 70 82q-16 -4 -34 0t-30 -1q-14 -4 -14 -18t-10 -31zM633 582q0 59 -39 98t-105 43q-45 -10 -73 -40t-27 -68q0 -38 41 -87t75 -49t81 36t47 67zM975 633q0 52 -28 43q-11 -4 -21 4l8 -8q-16 -12 -29 -29q4 -5 14 -23q10 -19 33 -18
q23 0 23 31zM602 991q25 0 25 53l-45 -53h20zM880 158q-50 -24 -106 -25q-56 0 -87 31q-11 10 -32 34q-20 24 -26 29q-23 19 -34 75t-25 89t-52 21q-12 -10 -8 -28t14 -47q10 -31 10 -47t-16 -40t-16 -40t9 -32t9 -26q0 -49 -82 -101q-35 29 -56 71q-22 42 -25 47t-22 22
t-23 23t-3 54q0 48 13 78t34 61t21 40q0 15 -19 40q-16 12 -26 0t-28 -42q-18 -29 -30 -35t-47 -36q-69 -59 -133 -61q-16 0 -39 29t-22 49q33 41 35 49t7 43t21 53q16 17 110 22t95 28q0 28 -35 42q-35 15 -45 23t-48 35t-46 37t-41 32t-27 36q41 106 148 94l59 -113
q4 -4 48 -58t44 -30q8 63 7 66q-31 49 -71 91t-46 56q-6 13 -22 23t-19 16q-12 14 -3 22t9 35q0 63 53 64q34 0 64 -21t45 -43q16 -23 27 -39q12 -16 20 -28t2 -68q-6 -54 -2 -54t12 6q8 5 20 -6q13 -11 15 -5q6 18 -8 97t-4 89t14 3t9 5t2 35t-1 31q9 31 71 69t99 37
q37 0 53 -40t17 -79q0 -38 -11 -70t-35 -68t-29 -48q-4 -12 -28 -45t-24 -48t11 -23t23 0q11 9 30 41q18 32 32 48q14 17 32 59t38 58q2 0 20 42t23 42q25 0 74 -54t49 -84t-16 -56t-31 -36q-13 -10 -49 -26t-47 -22t-50 -24t-57 -40l26 -55q20 6 92 61q72 56 123 56
q49 0 115 -26t66 -52q0 -25 -22 -41q-22 -17 -26 -23q-6 -6 -16 -28t-25 -29q-15 -8 -39 -11t-57 -5t-49 -4t-59 0q-95 4 -105 -35q-8 -25 15 -40q23 -16 59 -32t49 -30t27 -49q14 -34 24 -46q56 -61 56 -91t-50 -54zM813 223l-10 31q-2 27 -6 30t-31 11q-8 -16 0 -33l-8 11
q2 -3 7 -21q10 -35 42 -35q6 2 6 6z" />
    <glyph glyph-name="section" unicode="&#xa7;" horiz-adv-x="1048" 
d="M1020 317q14 -137 -66 -220t-224 -94t-223 43t-89 153q-12 47 -1 67t77 23q133 10 151 -51q15 -67 33 -87t41 -18q76 6 69 107q-6 64 -55 126t-159 145t-143 133q-34 50 -39 108t6 83q12 27 62 77t77 68t41 34q34 41 -28 128t-118 83q-35 -3 -89 -23t-62 -41
q-11 -43 -9 -161t13 -209l63 -664q6 -70 -18 -90t-105 -29q-8 2 -42 -3q-84 -12 -87 38l-53 934q-8 153 35 221q16 27 51 72q45 51 103 75t165 33q172 14 274 -51q101 -66 115 -197q6 -42 -9 -66q-15 -23 -21 -34t-25 -30q-20 -19 -42 -41t-30 -29q-66 -66 -59 -99
q4 -41 70 -102q10 -13 128 -101t168 -157q48 -70 54 -154z" />
    <glyph glyph-name="copyright" unicode="&#xa9;" horiz-adv-x="909" 
d="M555 582q4 143 -23 190q-28 47 -104 51t-92 -47q-18 -33 -27 -259t17 -286q14 -35 48 -67t68 -35q78 -4 97 94q6 43 10 164zM51 -73q0 54 20 68q20 15 39 17t39 -3q19 -5 39 -8t24 -5t19 -8q13 -6 19 -16t18 -28q12 -19 21 -79q2 -16 51 -45t78 -29q76 -4 117 26t47 111
q41 145 0 170q-23 12 -102 -43t-126 -53q-106 2 -180 58t-95 137t-17 278t14 261t39 108q90 125 276 119q49 -3 88 -53t60 -46q88 109 211 55q47 -22 45 -81l10 -801q0 -119 -13 -171t-47 -97q-63 -88 -426 -82q-156 4 -213 58t-55 149v33zM733 205l-4 -19q4 0 16 -6
q6 31 0 62l-12 -11v-26z" />
    <glyph glyph-name="ordfeminine" unicode="&#xaa;" horiz-adv-x="907" 
d="M606 637q0 55 -39 111t-84 55q-82 0 -121 -55q-61 -121 -30 -183q-2 -78 39 -94q55 -20 145 34t90 132zM834 668q0 -128 -54 -178q-74 -68 -282 -95q-72 -8 -107 -22q-26 -13 -26 -78l-3 -23q-36 -59 4 -116t103 -50q135 12 141 107q2 25 32 51t48 35q53 41 84 13t31 -83
q0 -117 -95 -185q-96 -68 -270 -67q-174 0 -256 91q-80 92 -73 317q-23 144 4 342l8 80q2 37 27 70t49 49l24 14q27 0 39 -14t12 -32q0 -44 33 -40q15 2 103 51t151 49q273 1 273 -286z" />
    <glyph glyph-name="guillemotleft" unicode="&#xab;" horiz-adv-x="808" 
d="M532 559q8 4 -14 74q14 238 -92 241q-57 4 -79 -52t-30 -163q-2 -10 -15 -57t-1 -51q35 -37 115 -29t116 37zM764 573l-2 -53q-8 -64 -26 -76t-99 -14q-15 5 -56 15q-41 9 -73 17q-127 30 -195 16q-25 -5 -33 -17t-14 -72v-20q-23 -211 94 -217q53 -4 79 11t34 57t37 57
t98 6q70 -1 90 -19t19 -61q-10 -113 -87 -141t-259 -15q-281 16 -318 221q-19 109 21 357q12 59 94 223q8 8 20 24q88 118 258 111q322 -23 318 -410z" />
    <glyph glyph-name="logicalnot" unicode="&#xac;" horiz-adv-x="919" 
d="M578 330v512q0 76 15 94t91 14l39 -2q79 -2 97 -19t16 -85l-23 -787q-4 -92 -115 -71q-29 -8 -42 10t-27 45t-47 33t-88 -43t-97 -49q-164 -6 -252 100q-57 76 -57 215l-2 543q0 129 131 106q99 -24 113 -60q8 -19 8 -50l-14 -525q-2 -78 42 -134t86 -51t84 51t42 153z
" />
    <glyph glyph-name="uni00AD" unicode="&#xad;" 
d="M680 268q14 82 23 229q8 148 -19 204t-88 18q-33 -20 -51 -56t-51 -72t-62 -78t-78 -95q2 -33 3 -85t3 -90t2 -46q36 -66 130 -71q94 -4 137 28t51 114zM664 991q-72 248 -162 254q-137 6 -162 -119q-12 -57 -4 -292q0 -172 4 -269q0 -12 43 28q43 41 99 107t80 110
t46 69q23 25 35 46q13 21 21 66zM911 1135q15 -47 29 -199t2 -392t-68 -427q-22 -72 -124 -104t-240 -27q-348 14 -420 247q-12 31 -25 199t-3 411q11 243 67 390q25 69 137 111t240 38q333 -14 405 -247z" />
    <glyph glyph-name="registered" unicode="&#xae;" horiz-adv-x="864" 
d="M543 367v215q0 98 -21 131q-63 96 -100 96q-82 0 -100 -64q0 -2 -17 -48t-20 -99l-13 -139q2 -111 22 -201t38 -115q18 -31 80 -30q131 0 131 254zM688 4h-24q-49 0 -67 31q-17 31 -32 35q-37 12 -99 -36t-110 -48q-122 0 -196 54t-88 138t-11 316q2 231 27 286
q70 147 274 148q49 0 114 -47t89 -41q25 10 16 37t-4 53t41 24l57 -2q58 0 80 -16t24 -30q3 -13 3 -25l21 -701q4 -176 -115 -176zM612 1014q-4 0 -9 9t-25 9l36 25q72 -43 -2 -43z" />
    <glyph glyph-name="macron" unicode="&#xaf;" horiz-adv-x="1067" 
d="M717 408v391q-2 88 -2 143q4 201 -86 270q-53 43 -109 43q-18 0 -32 -4t-26 -7q-29 -8 -49 -51q-7 -15 -11 -21t-9 -22q-6 -17 -8 -22q-45 -117 -45 -198l-6 -543q-2 -119 59 -179t99 -61q127 0 161 72q64 109 64 189zM987 317q-29 -338 -455 -337q-68 0 -165 18l-86 20
q-176 72 -209 224q-12 61 -13 237v56l-4 344q4 145 4 165q6 178 121 260t361 82q63 0 127 -10l90 -18q143 -55 196 -168q27 -55 38 -326t-5 -547z" />
    <glyph glyph-name="degree" unicode="&#xb0;" horiz-adv-x="1413" 
d="M573 526q-27 8 -90 -6q-119 -16 -145 -38t-26 -52q-1 -31 14 -42q33 -23 66 -29q32 -5 58 -8t36 -5t20 1q8 3 19 10t22 12q55 19 67 79t-41 78zM1044 866q0 84 -126 88q-84 -2 -116 -26t-42 -88q-8 -14 -4 -46t18 -46q43 -43 62 -39q82 8 146 54t62 103zM930 125h-2
q-68 0 -84 96q-2 6 -2 19q16 92 80 98q125 0 125 90q-1 31 -21 45q-20 15 -34 21t-38 10q-23 4 -38 7t-42 6t-65 11q-39 8 -75 -3q-71 -21 -28 -74q42 -53 61 -108q9 -30 -15 -62q-2 -3 -28 -49t-54 -68q-12 -6 -56 -22t-53 -15q-199 -2 -289 39q-76 24 -120 90t-46 154
q0 53 80 116t82 115q-4 65 -81 111q-31 18 -55 51t-26 71q0 129 81 209t210 78q47 2 67 -25q19 -28 40 -98q-2 0 -10 6q-10 -98 -80 -100q-40 -4 -49 -4q-25 -8 -40 -31t-14 -51q-2 -55 48 -80t128 -33q8 -2 30 -11t42 -3q12 6 0 32t-10 36q18 161 104 269t252 107t254 -75
t88 -207q0 -55 -81 -124t-80 -126t82 -112q81 -51 81 -125q-2 -131 -92 -206t-227 -75z" />
    <glyph glyph-name="plusminus" unicode="&#xb1;" horiz-adv-x="1771" 
d="M356 -344q-137 0 -247 37q-63 23 -35 41q6 4 18 14q68 57 200 77q132 21 204 75t114 97q70 75 83 182q5 43 15 65t45 53q34 31 37 54t-9 55t-5 49q8 18 11 27t-5 31t-7 35t27 40t21 76q-4 27 -45 43q-42 15 -60 43t4 71t57 77q99 94 81 134q-4 8 -12 20t-19 30
q-11 20 -13 78q-2 121 -76 236q-38 58 -109 111q-185 139 -199 167t19 30h12q243 -4 435 -62t314 -149q122 -90 207 -217t127 -251t60 -267q68 -528 -430 -901q-178 -135 -346 -168t-474 -33z" />
    <glyph glyph-name="uni00B2" unicode="&#xb2;" horiz-adv-x="1153" 
d="M634 334q15 0 15 10l160 111q111 72 129 59q9 -37 15 -117t-5 -92q-12 -12 -81 -77q-69 -64 -107 -100q-200 -189 -228 -188q-28 2 -221 152t-198 176q-9 60 -11 80t7 96q-1 17 111 -43l163 -84q8 -4 13 -9t14 5q8 11 8 37l2 611q0 69 32 97t76 22t56 -25q12 -20 10 -99
l-12 -522q-2 -98 6 -98h6q4 -2 14 -2h26z" />
    <glyph glyph-name="uni00B3" unicode="&#xb3;" horiz-adv-x="1153" 
d="M444 743h-25q-14 0 -16 -10l-159 -110q-111 -72 -129 -60q-24 97 -20 151q5 54 13 62q76 76 233 219q156 142 182 142q27 0 219 -151t198 -177q10 -59 11 -79t-7 -97q0 -18 -105 38t-141 75l-38 19q-1 1 -7 2q-18 3 -18 -40l-2 -610q0 -68 -32 -97q-32 -30 -77 -24
t-56 26t-9 99l12 522q2 98 -6 98h-6q-5 2 -15 2z" />
    <glyph glyph-name="uni00B5" unicode="&#xb5;" horiz-adv-x="1382" 
d="M199 942h24q49 0 65 -33t31 -39q37 -16 103 37q107 86 219 34q43 -19 59 -42q40 -58 66 -49q6 2 40 32q94 83 179 83q165 0 229 -70t64 -252v-567q0 -84 -133 -70q-78 -28 -101 -12t-22 92l-8 557q-4 174 -115 174q-59 0 -93 -56t-34 -149v-514q0 -62 -33 -82t-67 -19
t-68 1q-35 0 -49 18t-14 64l-4 557q0 74 -34 113q-34 38 -78 38t-55 -17q-24 -36 -26 -60q-2 -25 -4 -41t-2 -43v-44l2 -89l4 -388q0 -42 -20 -64t-44 -26t-66 -3t-61 4t-39 25q-19 22 -20 64l-12 691q-4 69 22 107t95 38z" />
    <glyph glyph-name="paragraph" unicode="&#xb6;" horiz-adv-x="905" 
d="M672 144q0 -10 12 -21q20 10 21 41v41l-17 -17v21q-16 -55 -16 -65zM422 850q-72 0 -94 -68q0 -4 -18 -49t-23 -100l-17 -146q-4 -113 18 -218t38 -133t54 -26q115 8 139 121q9 43 11 72t7 88l8 227q6 136 -22 184q-29 48 -101 48zM528 1253q24 82 90 107h52q65 0 79 -8
q13 -8 34 -21t16 -59q6 -20 7 -132q0 -112 -10 -268t-10 -501v-178q0 -186 -106 -187h-25q-62 0 -81 12q-18 12 -44 22q-26 9 -88 -22t-108 -30q-121 0 -194 57t-87 164q-8 63 -2 208q6 146 8 261t17 149q37 70 120 112t183 42q47 0 67 -25t51 -17t38 36q16 78 -3 237z" />
    <glyph glyph-name="periodcentered" unicode="&#xb7;" horiz-adv-x="1431" 
d="M1376 903q0 -10 -6 -47l-160 -758q-18 -88 -153 -126q-53 -15 -108 21q-54 36 -68 81l-117 350q-4 8 -7 62q-8 141 -52 141q-17 -1 -27 -69t-16 -95l-84 -385q-10 -48 -31 -60t-78 -24q-69 -23 -145 0t-93 76l-229 743q-10 31 -10 47q-2 31 53 51t107 15q86 -12 112 -119
l90 -346l23 -92t39 -101q18 -16 30 -10q39 17 42 159q1 54 4 58q61 342 104 451q10 29 29 27q55 -7 97 -6t95 -41t72 -95l86 -256q4 -12 20 -86q39 -182 72 -186q20 -4 43 237l43 363q4 37 32 59t52 25l25 4q114 6 114 -68z" />
    <glyph glyph-name="uni00B9" unicode="&#xb9;" horiz-adv-x="907" 
d="M440 840q-66 0 -92 -54t-24 -165l2 -240q0 -155 11 -181t57 -50t81 -25q131 0 125 324q-4 86 -1 163t-10 108q-13 30 -63 75t-86 45zM818 367q-9 -57 -11 -70q-12 -141 -95 -216t-229 -75q-25 0 -76 10t-94 -14l9 -229q2 -84 -117 -66q-53 -37 -91 -2t-38 107v1032
q0 48 44 72t89 32q49 28 67 8q32 -32 63 -39q32 -7 81 19t86 27q125 1 204 -53t101 -154q16 -65 16 -199q0 -133 -9 -190z" />
    <glyph glyph-name="ordmasculine" unicode="&#xba;" horiz-adv-x="913" 
d="M358 600v-172q0 -209 22 -261t72 -49q50 2 90 28t42 61l8 53l-6 180q-14 204 -20 264q-13 148 -98 144q-46 -2 -73 -35q-37 -49 -37 -213zM838 541q4 -31 -3 -98t-6 -103q2 -156 -41 -221q-63 -115 -210 -123q-53 -4 -119 42q-67 46 -91 33q-45 -24 -47 -55
q-2 -22 -53 -26l-24 -2q-84 -6 -106 10t-21 88q2 195 2 317l-8 832q-4 72 13 89q17 16 59 20t49 3q62 -9 91 -54q13 -22 15 -48q-37 -293 16 -319q14 -6 60 26t96 35q112 8 190 -41t105 -134t33 -271z" />
    <glyph glyph-name="guillemotright" unicode="&#xbb;" horiz-adv-x="931" 
d="M821 608l-14 -239l-10 -9l10 -2l-8 -243q-2 -63 -46 -89t-81 -19t-60 10q-55 7 -59 40q-2 16 -2 43l20 506q4 109 -26 150q-31 41 -107 45q-51 0 -69 -47t-29 -105q-3 -29 1 -136q3 -108 3 -116l-6 -307q-12 -127 -143 -113q-92 6 -107 52q-6 20 -5 276t9 412t-16 434
l-8 92q-2 86 112 100q57 41 94 7t36 -102t5 -210t19 -149q45 -18 59 -11t45 24q30 16 98 14t116 -20t77 -71q8 -14 39 -41q31 -26 45 -64t8 -112z" />
    <glyph glyph-name="questiondown" unicode="&#xbf;" horiz-adv-x="905" 
d="M436 856q-94 0 -110 -78q-9 -65 -9 -205q0 -139 -3 -195q-6 -103 -4 -159t27 -72q53 -34 132 -34q80 0 90 88q0 5 7 29t7 65l15 164l-4 59q-7 110 1 161q7 52 1 74q-13 48 -93 85q-40 18 -57 18zM825 474q0 -234 -34 -316q-76 -172 -340 -172l-162 22q-137 31 -184 125
q-46 94 -46 346t45 334q80 150 322 150q47 0 117 -7q215 -92 249 -170t33 -312z" />
    <glyph glyph-name="Agrave" unicode="&#xc0;" horiz-adv-x="835" 
d="M774 11q0 -62 -20 -127t-49 -101q-41 -45 -128 -75t-180 -30q-373 0 -372 338q0 111 96 214q29 30 121 126q32 32 55 85q23 52 22 81v29q-12 41 19 67t68 33l36 8q86 0 110 -17t11 -83l-16 -88q-8 -49 -9 -56q0 -7 -12 -32t-24 -31t-94 -96q-113 -121 -113 -248
q0 -76 37 -146t89 -69q52 0 95 57t43 115q0 86 70 131q37 53 91 15t54 -100zM291 926v32q0 76 75 111t142 -12l43 -121q4 -43 -32 -71t-73 -34l-38 -8q-80 1 -98 17t-19 86z" />
    <glyph glyph-name="Aacute" unicode="&#xc1;" 
d="M592 1155v55q-39 -27 -23 -32q6 -2 6 2zM205 1137q0 73 164 150q66 31 90 53q25 22 35 25t67 3h35q82 0 100 -16t19 -86q-4 -31 -8 -82q-3 -52 -15 -198t-23 -376t15 -436q3 -20 96 -12q94 8 99 6q33 -25 41 -62t-25 -65q-10 -31 -61 -39q-52 -8 -136 -4t-98 4l-305 -16
q-51 -2 -79 37t-14 81t70 50q162 -33 172 20q14 31 0 172t-14 182l12 491q0 79 -14 79q-45 2 -113 -25t-79 -20q-31 16 -31 84z" />
    <glyph glyph-name="Acircumflex" unicode="&#xc2;" horiz-adv-x="501" 
d="M267 1362q149 0 149 -123q4 -264 6 -432l12 -119q0 -74 -12 -218t-14 -219t10 -161l4 -31q2 -53 -55 -64t-86 3q-66 -16 -94 28t-25 117q-27 725 8 1057q4 31 -24 34t-54 -8t-31 1l-12 41q-17 65 77 82q66 12 141 12z" />
    <glyph glyph-name="Atilde" unicode="&#xc3;" horiz-adv-x="890" 
d="M856 892q0 -26 -12 -61l-242 -778q-25 -76 -149 -47q-70 -12 -116 16t-67 84l-227 687q-6 11 -16 33t-18 36q-7 14 -7 19q0 41 29 63t90 6q133 -8 147 -55l131 -406q7 -23 15 -81t20 -86q12 -29 43 -21q29 10 50 120q9 48 14 62q39 285 86 420q16 47 116 47q53 12 83 -10
t30 -48z" />
    <glyph glyph-name="Adieresis" unicode="&#xc4;" horiz-adv-x="569" 
d="M567 891q0 -37 -4 -44t-12 -4t-32 1t-50 -17q-78 12 -80 -10l4 -770q0 -29 -2 -35t-8 -4q-7 2 -27 2t-45 -12l-37 -18q-94 0 -116 16t-19 88q31 428 0 643q0 8 5 40t-9 52q-8 8 -43 8l-12 -2q-47 26 -77 16q-9 -3 -14 2t-5 51t13 58t95 -4q33 14 53 19q23 3 28 31t-1 55
l-8 26q0 201 37 251t167 50t164 -19q35 -19 35 -69q1 -50 -29 -92q-30 -41 -65 -22l-76 41q-38 22 -33 -76q1 -18 3 -41q-41 -154 44 -154q15 0 25 2h10q82 -4 102 -13t19 -46z" />
    <glyph glyph-name="Aring" unicode="&#xc5;" horiz-adv-x="835" 
d="M728 -3q-24 1 -60 1t-85 17q-48 17 -57 48l-39 136q-2 6 -7 25q-5 18 -9 30t-10 32q-22 72 -58 72q-20 -2 -31 -32q-10 -30 -22 -78q-12 -47 -26 -70l-66 -115q-12 -23 -63 -51t-89 -16q-36 -6 -64 20t-24 56q0 10 8 24t17 31q215 311 221 344q11 59 -141 279l-49 71
q-6 14 -14 32t-9 26q-4 39 27 61t88 10l49 4q37 0 48 -6t18 -16l49 -121q16 -29 28 -76q22 -85 62 -87q30 -2 37 11q8 13 11 20t8 20t7 18l78 203q23 39 139 30q45 6 73 -16t26 -46t-29 -69q-211 -295 -216 -333t163 -277l57 -80q43 -89 37 -104t-9 -20q-2 -5 -18 -6t-24 -2
t-32 0z" />
    <glyph glyph-name="AE" unicode="&#xc6;" horiz-adv-x="870" 
d="M829 68q0 -14 -22 -32q-23 -16 -44 -22t-65 -6h-57q-41 0 -46 7t-13 18l-21 33q-12 30 -35 78q-24 48 -72 150t-89 164t-58 50q-22 -49 17 -311l16 -101q4 -63 -54 -86t-122 -2q-10 2 -30 4t-30 6q-22 11 -22 74q0 406 -4 664l-6 473q0 78 14 96q29 33 156 31
q98 -6 98 -92q-14 -647 0 -668q8 -14 45 50t70 136l32 72q31 39 47 58q16 20 49 38q32 18 68 19h45q41 0 68 -22t27 -43t-33 -73q-25 -23 -61 -57t-90 -110q-54 -74 -46 -110q15 -68 189 -329l59 -86q20 -30 20 -71z" />
    <glyph glyph-name="Ccedilla" unicode="&#xc7;" horiz-adv-x="823" 
d="M426 171q0 -7 -16 -15t-18 -10q-13 -8 -78 -17q-65 -10 -111 70l-148 250q-25 39 -25 54t15 50q14 35 21 43l114 213q29 51 44 60t72 10t79 -26q27 -38 -2 -83q-135 -145 -144 -235q-4 -51 42 -120t94 -112l47 -41q24 -54 19 -69t-5 -22zM788 266q23 -55 5 -84t-52 -37
l-34 -8q-70 0 -84 6t-45 60l-119 215q-38 63 -43 69q-19 20 13 66q85 120 120 172q35 53 39 57q18 39 50 69t50 32q37 12 67 -14q56 -49 9 -115q-125 -135 -137 -215q-9 -55 31 -124t85 -108z" />
    <glyph glyph-name="Egrave" unicode="&#xc8;" horiz-adv-x="925" 
d="M426 518q0 -12 5 -23t-17 -49l-140 -237q-33 -57 -129 -76q-33 -9 -63 15t-31 46q0 22 23 68q127 141 129 244q0 45 -21 103q-20 58 -43 96l-20 34q-5 12 -23 40t-18 39t24 29q25 17 50 25l26 11h46q34 1 38 -5q18 -25 35 -61l109 -242q20 -45 20 -57zM424 210
q0 16 15 26l35 24q19 14 28 31q123 129 131 207q6 48 -29 118t-74 115l-38 45q-6 16 -22 34t-17 24q1 32 27 54t67 11q98 0 135 -70l125 -251q27 -60 23 -78t-50 -92l-123 -195q-18 -27 -54 -42t-62 -17l-29 -2q-36 2 -62 22t-26 36z" />
    <glyph glyph-name="Eacute" unicode="&#xc9;" horiz-adv-x="1282" 
d="M340 84q0 -33 -35 -53t-69 -27l-35 -4q-82 0 -101 13q-18 13 -18 73v15q0 69 48 100q19 12 48 10l66 -6q70 -5 83 -19t13 -42v-60zM762 84q0 -56 -18 -70t-103 -14h-18q-47 0 -77 27t-38 55l-6 27q0 33 34 55t68 24l35 5q84 1 103 -13t20 -71v-25zM1167 109
q0 -57 -18 -69t-102 -13h-19q-82 0 -101 13t-20 71q2 12 7 29t36 47t95 30t107 -45q15 -16 15 -37v-26z" />
    <glyph glyph-name="Ecircumflex" unicode="&#xca;" horiz-adv-x="1146" 
 />
    <glyph glyph-name="Edieresis" unicode="&#xcb;" horiz-adv-x="1116" 
d="M678 557q18 2 -6 125t-69 246q-44 123 -75 125q-38 5 -110 -225t-39 -257t83 -35t82 -6q32 4 81 16t53 11zM150 127q-105 -1 -105 53q1 33 31 133q290 946 373 1020q38 38 83 22q20 -7 25 -7q51 16 78 -8t47 -83l348 -1062q12 -33 12 -68q-262 -39 -268 74q-2 39 7 78
q23 100 -36 114q-41 8 -207 9t-202 -11q-33 -14 -46 -61t-11 -86l4 -39q-10 -33 -43 -52t-62 -22zM627 1479q0 -27 -27 -49q-26 -22 -66 -23q-40 0 -54 6t-50 43l-149 148q-41 44 -41 74t23 51q24 20 63 20h55q63 0 75 -6t48 -53l92 -144q31 -40 31 -67z" />
    <glyph glyph-name="Igrave" unicode="&#xcc;" horiz-adv-x="1116" 
d="M678 557q18 2 -6 125t-69 246q-44 123 -75 125q-38 5 -110 -225t-39 -257t83 -35t82 -6q32 4 81 16t53 11zM150 127q-105 -1 -105 53q1 33 31 133q290 946 373 1020q38 38 83 22q20 -7 25 -7q51 16 78 -8t47 -83l348 -1062q12 -33 12 -68q-262 -39 -268 74q-2 39 7 78
q23 100 -36 114q-41 8 -207 9t-202 -11q-33 -14 -46 -61t-11 -86l4 -39q-10 -33 -43 -52t-62 -22zM694 1430q-64 0 -99 13q-34 13 -118 66q-10 6 -25 31q-14 25 -24 25q-10 -1 -30 -15t-23 -19l-10 -25t-20 -34t-42 -14q-98 0 -98 76q0 68 68 123q69 55 143 55t172 -55
q31 -16 64 -48q32 -32 39 -32t18 14q10 15 10 19t7 24t9 23q2 2 6 8q12 18 55 19q43 2 70 -20t23 -56q-3 -70 -67 -124t-128 -54z" />
    <glyph glyph-name="Iacute" unicode="&#xcd;" horiz-adv-x="1067" 
d="M684 887q2 82 -19 172q-23 90 -51 121q-28 30 -111 30t-101 -11t-33 -52q-16 -41 -17 -205l-2 -436q-2 -121 26 -181t120 -61q59 0 88 9t67 44q25 25 31 433zM528 133q-174 -1 -282 63t-131 177q-13 54 -13 487l-2 148q2 188 100 269t334 81t326 -197q18 -43 36 -228
t6 -405q-11 -220 -67 -308q-56 -87 -307 -87zM670 1432q-64 0 -99 12t-118 65q-10 6 -28 35q-17 29 -27 29t-32 -25q-29 -32 -34 -61q-6 -29 -51 -29q-101 0 -101 72t69 127t142 55t172 -53q29 -14 57 -52q27 -38 34 -38t31 12t24 16q0 56 16 72q15 15 53 16q40 1 66 -19
t22 -56q-2 -70 -66 -124q-66 -54 -130 -54z" />
    <glyph glyph-name="Icircumflex" unicode="&#xce;" horiz-adv-x="1251" 
d="M424 123q115 0 176 113q14 33 14 55l13 77q-1 11 -11 21q-69 14 -164 19q-179 8 -173 -52q8 -168 32 -200q8 -14 46 -24t67 -9zM356 -12q-122 0 -196 57t-92 164q-9 70 -7 314q2 245 31 311t103 108q74 43 188 38t181 -61q43 -34 54 -16q11 19 -5 56q-15 37 -4 92
q11 54 -15 166l-8 40q-12 71 -18 78q-5 5 3 13q9 8 21 8h76q77 0 102 -9t29 -29t4 -54q-18 -312 -17 -370q2 -59 0 -88t-18 -44q-66 -59 -147 -50t-99 42q-63 100 -103 100t-72 -24t-42 -56q-23 -102 -20 -139q-4 -72 2 -119q20 -10 64 -7q231 16 287 13q56 -2 102 0t73 -3
t63 -5l146 4q80 0 121 7t51 -5t14 -16q72 -86 -18 -96q-34 -4 -186 5t-170 -3q-31 -16 -17 -162q-16 -80 -25 -109t-37 -59t-81 -47q-133 -45 -318 -45zM1036 719q-6 0 -4 5t-3 6t-15 1l20 39q4 -4 12 -9t17 -17q10 -12 4 -18q-6 -7 -31 -7z" />
    <glyph glyph-name="Idieresis" unicode="&#xcf;" horiz-adv-x="864" 
d="M221 471h-24q0 -17 -2 -33t-2 -24q28 12 28 57zM598 297q0 78 -84 123t-162 24q-18 -4 -33 -36q-14 -32 -26 -60q-11 -28 -25 -92t0 -86q19 -31 125 -31l94 2q45 1 78 51t33 105zM328 696l-15 -83q0 -21 9 -25q27 -14 128 -9t117 1q133 -33 187 -101t55 -205l2 -188
q0 -104 -13 -154q-14 -50 -56 -139q-42 -88 -68 -100q-54 -31 -188 -29t-144 53q-8 21 -6 39t24 54q6 10 43 0t77 -20t81 15q18 14 36 93t7 125q-58 1 -160 -19t-123 -18t-79 22q-185 62 -179 121q10 303 31 432q2 39 5 126t14 148t48 83q112 67 326 64q72 -1 84 -1
q9 -14 13 -48t-6 -54q-10 -19 -44 -33t-96 -8t-86 -27q-25 -33 -24 -115z" />
    <glyph glyph-name="Eth" unicode="&#xd0;" horiz-adv-x="901" 
d="M795 530q6 -35 -16 -54t-93 -23l-498 -21q-135 -6 -133 43q2 10 11 23q-4 35 16 83t76 50q381 23 540 24q77 0 97 -125z" />
    <glyph glyph-name="Ntilde" unicode="&#xd1;" horiz-adv-x="20" 
d="M74 885q37 -11 57 -31q21 -20 41 -66t30 -60q10 -15 44 -37q35 -22 45 -44q51 -101 75 -131t52 -55q29 -25 37 -39q145 -223 151 -229q113 -153 165 -190t52 -85l2 -29q2 -31 -2 -32q-8 9 -16 33t-31 47t-117 83q-20 14 -23 33q-3 17 -11 35t-36 48t-40 52
q-41 82 -71 127t-37 75t-27 54t-88 107q-70 81 -94 117t-81 100t-77 117z" />
    <glyph glyph-name="Ograve" unicode="&#xd2;" horiz-adv-x="778" 
d="M336 1335q0 -2 -29 -49t-28 -63l-3 -93q0 -30 6 -66t2 -48q-6 -23 -65 -23h-29q-133 0 -133 58q-17 152 15 194l69 88q39 47 55 57t56 9q84 -1 84 -64zM694 1327q0 -2 -32 -58t-29 -67l16 -104q4 -36 12 -65t-5 -32q-28 -8 -70 -8h-27q-118 1 -133 13q-14 12 -14 24
l-2 31q-17 134 10 172l45 61q10 14 24 34q13 20 21 32q30 42 76 41q44 1 76 -21t32 -53z" />
    <glyph glyph-name="Oacute" unicode="&#xd3;" horiz-adv-x="778" 
d="M383 1328v-23l2 -17v-33q0 -76 -20 -104l-93 -123q-8 -10 -16 -18t-13 -14t-15 -9q-10 -4 -12 -7t-24 -3h-40q-30 0 -50 -7t-23 -5t-3 20t18 49l53 92q24 47 16 99q-9 53 -12 82q-6 61 29 61l129 -2q30 0 40 -4q9 -4 15 -5t10 -6q3 -5 6 -9q3 -2 3 -14zM502 940
q-44 0 -59 11q-13 11 -13 44q0 2 36 57t30 76l-19 158q-8 60 16 76t109 16q100 6 100 -24q0 -4 10 -33t5 -55l-29 -127q-12 -57 -77 -128t-109 -71z" />
    <glyph glyph-name="Otilde" unicode="&#xd5;" horiz-adv-x="473" 
d="M262 1368q109 0 109 -62t-31 -118l-45 -76q-6 -8 -29 -51t-49 -51q-12 -4 -29 -4q-92 0 -92 59q0 2 44 42t42 56l-18 129q-14 60 -8 68t77 8h29z" />
    <glyph glyph-name="Odieresis" unicode="&#xd6;" horiz-adv-x="20" 
d="M479 -74l4 13q-12 -57 -41 -58h-20q20 25 57 45zM90 676q0 -8 1 -13t-3 -13t-5 -8q-1 -1 -1 -3q-33 29 -25 90zM698 1155q-18 0 -18 21v24h74q-4 -8 -10 -18t-8 -18q-3 -8 -38 -9z" />
    <glyph glyph-name="multiply" unicode="&#xd7;" 
d="M737 377q-12 10 -20 3t-25 -7q-12 -2 4 -78q0 8 17 43q16 35 24 39zM516 471q18 2 20 169q1 167 -12 331q-12 164 -24 162q-39 -6 -127 -157q-89 -152 -149 -308t-29 -174q112 -73 321 -23zM971 396q0 -12 -3 -11q-2 0 -10 -5t-19 -9t-44 -23q-10 7 -48 14q-39 6 -57 -4
t-19 -80t7 -135l6 -67q-7 -60 -27 -65q-9 -1 -41 -1t-65 -6q-10 4 -43 -6q-81 -25 -98 27q2 182 -12 299q-25 25 -269 4l-94 -11q-23 1 -49 3t-41 4q-14 2 -22 21q-7 19 -15 50q-16 98 8 148l408 755q2 4 14 41q344 8 346 -71q0 -8 -1 -24t-4 -63t-6 -95t-5 -112t-4 -121
q-4 -114 3 -217q7 -104 26 -117t45 1l10 4q47 -2 78 -20t37 -37l8 -16v-55z" />
    <glyph glyph-name="Oslash" unicode="&#xd8;" horiz-adv-x="907" 
d="M870 891q0 -12 -14 -51l-383 -998q-6 -16 -15 -46q-27 -90 -66 -104q-19 -7 -48 -7h-72q-54 0 -64 12t-7 28q2 17 2 24t17 31t26 46l61 166q12 35 -58 247q-71 212 -149 406l-77 195q-14 45 -15 51q0 37 25 54t94 18h41q74 1 91 -11t34 -73l90 -324q4 -13 4 -75t11 -100
t44 -29t45 34q12 26 17 53q6 27 10 39l109 369q0 3 22 35t25 52q2 21 11 25t58 5h23q108 0 108 -72zM248 1094q-49 0 -78 28t-35 58l-4 28q0 43 31 69t61 30l31 6q84 -1 102 -17t19 -88q-2 -12 -6 -31t-35 -51t-80 -32h-6zM512 1198v10q0 43 31 69t63 30l31 6q77 0 113 -39
t22 -86t-28 -55t-97 -31q-87 0 -111 13t-24 83z" />
    <glyph glyph-name="Ugrave" unicode="&#xd9;" horiz-adv-x="1019" 
d="M948 1270q0 -23 -16 -53q-258 -428 -297 -603q-17 -72 -17 -178t9 -178l8 -70q0 -40 -35 -62t-72 -26l-34 -4q-104 -68 -105 92v410l-317 619q-42 73 3 102q22 14 83 16q15 7 51 13q37 6 39 -11l180 -307q8 -12 16 -74t26 -105q18 -42 50 -33q31 9 75 122t75 221l30 109
q18 49 30 57t44 8h74q100 1 100 -65zM311 1448h-8q-80 0 -98 16t-19 90v11q0 72 18 88t99 16h8q83 0 101 -16q18 -17 18 -71t-20 -82q-40 -52 -99 -52zM567 1565q0 43 32 69t65 29l30 6q60 0 84 -16q6 -4 18 -45t20 -61q6 -21 -26 -47t-69 -38l-35 -14q-80 0 -99 17t-20 89
v11z" />
    <glyph glyph-name="Uacute" unicode="&#xda;" horiz-adv-x="552" 
d="M412 86q0 -29 -20 -34t-43 3q-22 8 -36 0q-23 2 -47 3t-36 2q-11 1 -26 2q-14 2 -18 4t-12 8t-6 14t-2 22t0 31l22 625q0 12 -55 14t-53 15q0 6 -6 42q-13 80 30 105q25 14 91 1t71 -11l33 8q86 20 98 -10q6 -14 6 -90zM220 1345q60 21 114 7t80 -46t22 -67
q-10 -90 -58 -102q-24 -6 -63 -4l-69 4q-41 2 -61 27q-19 26 -15 54t6 46q-16 59 44 81z" />
    <glyph glyph-name="Ucircumflex" unicode="&#xdb;" horiz-adv-x="1103" 
d="M238 94q4 0 16 12q-10 23 -37 33v-33q17 -12 21 -12zM803 641q15 161 -21 371q-14 86 -67 143t-137 55q-6 2 -18 4t-56 11q-43 9 -82 5q-39 -5 -49 -18q-19 -20 -29 -262t-1 -482t40 -249l82 -31q149 0 217 16t82 81q29 123 39 356zM496 6h-207q-76 0 -135 36t-60 93
l-8 1131q0 33 2 49q3 27 43 34t78 7l283 12q369 14 483 -221q53 -111 53 -420t-41 -404q-25 -57 -36 -75q-92 -146 -189 -194q-98 -48 -266 -48z" />
    <glyph glyph-name="Udieresis" unicode="&#xdc;" horiz-adv-x="1097" 
d="M745 389q0 131 -60 191t-212 53q-76 18 -108 0q-31 -25 -27 -244t20 -232q31 -25 91 -5q100 -8 135 -1t67 31q31 20 63 88q31 68 31 119zM700 991q0 100 -53 173t-151 65q-128 43 -144 4q-10 -43 -15 -243t15 -232q39 -27 111 0l29 8q102 0 155 62t53 163zM362 4
q-56 0 -102 2q-47 2 -89 38t-54 99t-13 244q-16 928 0 930q0 27 146 34t246 3q262 24 363 -58t106 -290q2 -82 -25 -136q-26 -54 -58 -72q-32 -16 -58 -32t-24 -32t22 -24q22 -8 52 -18t63 -35q31 -25 55 -93t27 -182q3 -112 -56 -204t-150 -135q-125 -57 -358 -41
q-37 2 -93 2z" />
    <glyph glyph-name="Yacute" unicode="&#xdd;" horiz-adv-x="1169" 
d="M788 256l-8 -57q12 8 26 14t17 9q4 3 -7 11q-11 9 -13 11q-3 2 -7 5t-8 7zM307 1044q-18 0 -24 -14t16 -86l6 -12q5 -66 15 -170t22 -338t4 -365q-2 -51 -137 -59q-79 -23 -101 2t-22 102l4 1162q0 72 18 88t99 14l117 -4q70 -2 102 -19t53 -71l248 -637q71 -143 79 -227
q2 -22 15 -13q33 21 41 239t0 425l-8 209q-2 29 1 47q3 19 1 29q-4 19 35 21q14 1 51 1h23q82 0 100 -16t16 -86l-20 -1102q-2 -78 -25 -124t-80 -36q-252 -16 -292 92q0 4 -7 23l-270 743q-12 31 -22 66q-10 34 -32 92q-8 24 -26 24z" />
    <glyph glyph-name="Thorn" unicode="&#xde;" horiz-adv-x="948" 
d="M678 242q0 -28 6 -29q16 0 29 21q12 22 12 45q-12 20 -16 32q-18 -8 -33 -41q2 0 2 -28zM786 76q0 -39 -34 -65t-72 -31l-35 -7h-39q-14 0 -26 5q-12 4 -16 6q-10 4 -11 33v63l-4 700q0 27 -91 42t-98 -23q-2 -6 2 -15l-4 -669q0 -55 -13 -62t-46 -43l-25 -30
q-94 0 -116 16t-19 88q12 164 13 270l8 263q0 36 -2 71t1 75t-12 48q-5 5 -32 12h-9q-78 -10 -100 -5t-22 51q0 47 8 63t28 18t58 -4l43 -6q20 0 26 30t0 58l-4 29q14 155 33 212q20 57 46 75q56 38 164 38q109 0 143 -19t34 -67q-1 -16 15 -26t49 4l30 12q61 6 109 -38
t37 -104q-10 -60 -34 -79q-24 -18 -83 -14l-49 4q-74 6 -89 98q-3 18 -3 21q-14 27 -20 29q-7 1 -18 15q-32 42 -66 44q-35 2 -63 -36t-24 -73q-27 -182 29 -201q104 -32 145 -32t72 18t78 20q40 -7 74 -42q35 -36 34 -78v-762z" />
    <glyph glyph-name="germandbls" unicode="&#xdf;" horiz-adv-x="925" 
d="M446 967q62 1 64 -5t-3 -20t-5 -52t-22 -47t-46 3l-41 35q-8 6 -8 -2q8 -57 18 -271t19 -399l6 -186q2 -33 -7 -37t-34 5t-68 -1l-45 -10q-94 0 -116 16t-19 88q31 428 0 643q0 1 4 63t-10 70q-4 4 -22 -14q-82 0 -107 16q-24 16 -24 58t5 50q5 9 15 7q63 -13 104 -10
q27 -2 41 3q15 4 15 30t-8 49l-9 22q35 197 54 236q33 61 127 71q29 2 67 2q123 0 160 -37q14 0 76 -5t102 13q39 17 87 -25t46 -107l-41 -1106q-4 -84 -114 -72q-61 -25 -95 25t-30 122q4 70 20 368t8 630q0 20 -26 44q-27 24 -54 36l-26 12l-78 -55q-47 -33 -39 -113
q-16 -34 -22 -68q-12 -78 46 -77q15 0 25 2h10z" />
    <glyph glyph-name="agrave" unicode="&#xe0;" horiz-adv-x="20" 
d="M721 678q0 18 -86 18l-221 -106q-5 -37 100 -6q59 14 59 -4t61 31t62 48q25 1 25 19zM741 379v33q4 20 4 47t9 43l57 -35l2 -2q-4 -25 -29 -73t-24 -95q0 -16 -31 6q12 27 12 76zM766 659q-76 0 -90 -104q10 -5 18 -35t0 -33q-37 1 -56 -35q-20 -36 -20 -70t-12 -43
t-28 21q-2 0 -16 -4q-13 -4 -22 -6q-10 -2 -24 -6t-24 -6l-25 -5q-47 -10 -47 -5q-29 14 -66 98t-69 113q-29 18 -9 40t17 35q-8 25 30 44q72 36 144 36v68q-23 29 -27 77t6 54q25 4 41 -36q17 -40 29 -40t94 41q4 -6 6 -16t8 -30t11 -44q27 -2 74 -2t55 -6t34 -6t43 -37
t17 -64q-6 -12 -19 -10t-39 9t-34 7zM782 911q-4 -4 -9 -11t-19 -16q-34 -22 -58 27l21 37l65 62v-99zM776 1071q-20 -16 -85 -8t-64 27q-1 46 27 72t55 30t32 0l33 -59q18 -6 6 -25t-4 -37zM287 1053v6l4 -3q-1 0 -4 -3zM287 932q0 -28 13 -56t13 -45q0 15 -46 -9t-50 -25
q-20 -2 -18 22l28 176q9 7 17 15l13 13q15 15 18 19t12 11v-121zM291 1056l2 -1q-1 1 -2 1z" />
    <glyph glyph-name="aacute" unicode="&#xe1;" horiz-adv-x="436" 
d="M338 469q0 -47 -16 -55t-32 -8t-48 4l-56 10q-14 2 -34 6t-28 5q-54 6 -54 27v14q0 12 8 42l10 33q4 12 9 34q12 51 35 49q10 -1 28 -1t47 -6l51 -9q80 -13 84 -24l-4 -58v-63z" />
    <glyph glyph-name="acircumflex" unicode="&#xe2;" horiz-adv-x="813" 
d="M324 721q0 -37 24 -65t148 -86t194 -130t70 -182t-93 -184t-263 -84t-267 54q-96 65 -96 192q0 51 21 68q22 17 96 22l26 2q37 2 50 3q14 1 26 -3t11 -6q-3 -5 6 -51t7 -58t6 -21q7 -8 12 -30q12 -50 108 -58q41 -2 84 46t43 75q0 28 -12 48t-58 46q-47 25 -99 52t-94 49
q-131 72 -170 128t-38 142q0 125 71 191q72 67 237 75t263 -42t98 -160q0 -60 -10 -78q-11 -18 -31 -22l-71 -9q-31 -4 -46 -4t-25 3t-12 10q-1 6 -2 18t1 30t0 47t-34 58t-93 27q-88 -2 -88 -113z" />
    <glyph glyph-name="atilde" unicode="&#xe3;" horiz-adv-x="778" 
d="M53 -176q0 2 36 48t34 62l-12 123q-6 63 27 87q34 24 98 -1q78 18 103 -3t17 -101l-8 -72q-6 -51 -84 -126t-117 -74q-94 0 -94 57zM395 -199q0 3 45 57t43 70l-6 138q-2 8 -6 23t-4 21q1 19 23 24t53 9l35 4q124 17 124 -57l-8 -156q-2 -37 -90 -95t-129 -58l-64 -4
q-16 0 -16 24z" />
    <glyph glyph-name="adieresis" unicode="&#xe4;" horiz-adv-x="909" 
d="M154 132q0 28 -7 36q-18 -25 -18 -33l10 -78q20 10 18 29q-3 18 -3 46zM313 390q0 -182 49 -183l363 -21q49 -2 78 -26t33 -49l2 -23q-2 -70 -20 -85t-101 -11l-518 10q-81 4 -99 20t-14 87q0 379 6 643l10 524q-4 70 18 87t103 13l457 -24q49 -2 78 -30t33 -56l6 -27
q1 -44 -7 -55q-8 -10 -14 -16t-39 -7l-315 8q-57 5 -53 -26q-49 -291 -2 -348q17 -21 239 -9l76 5q84 -5 98 -17t13 -82l12 -14q-2 -70 -25 -85t-79 -12t-95 6q-225 17 -250 -3q-43 -12 -43 -194z" />
    <glyph glyph-name="aring" unicode="&#xe5;" horiz-adv-x="1116" 
d="M678 557q18 2 -6 125t-69 246q-44 123 -75 125q-38 5 -110 -225t-39 -257t83 -35t82 -6q32 4 81 16t53 11zM150 127q-105 -1 -105 53q1 33 31 133q290 946 373 1020q38 38 83 22q20 -7 25 -7q51 16 78 -8t47 -83l348 -1062q12 -33 12 -68q-262 -39 -268 74q-2 39 7 78
q23 100 -36 114q-41 8 -207 9t-202 -11q-33 -14 -46 -61t-11 -86l4 -39q-10 -33 -43 -52t-62 -22zM403 1409h-22q-109 0 -109 72q0 25 29 65l90 142q35 47 48 54t77 7h68q63 0 75 -7t48 -54l90 -142q28 -40 28 -68q-1 -28 -27 -48t-62 -20t-84 44q-48 45 -83 90l-32 47
q-44 -7 -54 -96l-2 -29q-20 -45 -29 -51t-49 -6z" />
    <glyph glyph-name="ae" unicode="&#xe6;" horiz-adv-x="909" 
d="M862 104q0 -72 -17 -87t-100 -15h-542q-82 0 -100 15q-17 15 -17 87v1174q0 72 17 87t100 15h514q82 0 100 -15t19 -87v-8q0 -72 -18 -88t-101 -17h-357v-358h330q82 0 100 -16t19 -89v-6q0 -72 -18 -88t-101 -16h-330v-377h385q81 0 99 -15t18 -87v-9zM299 1409h-23
q-109 0 -108 72q0 25 31 65l90 142q35 47 47 54t76 7h67q63 0 77 -7t48 -54l90 -142q27 -38 27 -67t-26 -49q-27 -20 -73 -20t-58 5q-12 6 -48 47l-63 76l-54 -72q-33 -41 -48 -49t-52 -8z" />
    <glyph glyph-name="ccedilla" unicode="&#xe7;" horiz-adv-x="1116" 
d="M539 -20q-147 0 -253 48t-151 134q-49 98 -49 342v760q0 76 25 98t100 0l45 -10q31 -8 43 -12q13 -4 25 -9q12 -4 13 -13t3 -15q2 -7 0 -27t-2 -37l14 -803q4 -156 19 -186q57 -111 166 -111q55 0 104 31q84 53 79 152q-1 18 -3 53t-2 51l-45 799q0 104 78 127l49 4
q169 16 155 -109q33 -481 27 -723q-4 -315 -98 -415q-123 -129 -342 -129z" />
    <glyph glyph-name="egrave" unicode="&#xe8;" horiz-adv-x="909" 
d="M209 1232q0 -14 12 -67q3 2 15 6t12 10l2 21q0 27 -25 62q-16 -18 -16 -32zM412 1171q-51 0 -47 -26q-31 -266 10 -314q34 -15 213 0l69 7q75 -2 95 -16t20 -77v-6q0 -61 -19 -75t-96 -15q-35 5 -157 14q-123 9 -135 -4q-39 -12 -30 -184t54 -172l328 -8q45 0 71 -22
t27 -42l4 -20q0 -63 -15 -77t-89 -13h-488q-74 0 -91 14q-17 15 -15 65q13 325 8 584l-8 471q-4 63 14 79t92 16l412 -9q43 1 71 -23t31 -48l7 -25q0 -56 -19 -65t-49 -9h-268zM256 1448h-6q-49 0 -78 30t-33 58l-6 29q-47 47 3 75t114 29q28 0 60 -29t50 -57l17 -29
q68 -61 -19 -92q-41 -14 -102 -14zM639 1448h-6q-123 0 -144 47q-8 27 25 59q24 46 58 80t63 35q61 1 115 -29t8 -75q-2 -11 -6 -31t-34 -53t-79 -33z" />
    <glyph glyph-name="eacute" unicode="&#xe9;" horiz-adv-x="909" 
d="M209 1232q0 -14 12 -67q3 2 15 6t12 10l2 21q0 27 -25 62q-16 -18 -16 -32zM412 1171q-51 0 -47 -26q-31 -266 10 -314q34 -15 213 0l69 7q75 -2 95 -16t20 -77v-6q0 -61 -19 -75t-96 -15q-35 5 -157 14q-123 9 -135 -4q-39 -12 -30 -184t54 -172l328 -8q45 0 71 -22
t27 -42l4 -20q0 -63 -15 -77t-89 -13h-488q-74 0 -91 14q-17 15 -15 65q13 325 8 584l-8 471q-4 63 14 79t92 16l412 -9q43 1 71 -23t31 -48l7 -25q0 -56 -19 -65t-49 -9h-268zM539 1477q0 -27 -27 -50q-26 -23 -66 -23t-54 7q-14 6 -50 43l-147 148q-43 44 -43 74t24 52
t64 21h53q63 0 75 -7t48 -54l94 -144q29 -40 29 -67z" />
    <glyph glyph-name="ecircumflex" unicode="&#xea;" horiz-adv-x="1060" 
d="M944 427v-89q-2 -184 -110 -271t-340 -87q-231 0 -349 102q-117 102 -108 295q4 80 22 97q18 16 73 18t73 0q51 -2 74 -29q37 -33 36 -154q-3 -74 59 -130t149 -56t140 55q52 55 56 139q6 164 -252 285q-215 100 -290 190t-68 234q6 174 122 267q117 93 333 93t328 -93
t105 -269q-2 -43 -7 -66q-6 -23 -30 -42t-71 -21l-39 -4q-23 -2 -37 -2q-32 1 -41 13q-8 12 -8 29l4 107q0 107 -52 145t-165 46q-115 8 -155 -51t-44 -133t14 -100t52 -47t102 -45t119 -58l102 -70q171 -122 195 -223q8 -35 8 -75z" />
    <glyph glyph-name="edieresis" unicode="&#xeb;" horiz-adv-x="468" 
d="M109 121q-86 0 -86 58v46q0 43 18 54q20 10 72 6q0 2 18 -11q14 68 11 375t-31 555q1 6 -13 4t-18 -2q-70 0 -70 41q0 1 -1 21q-3 57 22 75q25 17 73 17t64 -5t52 1t38 6q42 -17 88 -9q45 7 66 7q22 0 34 -45t-2 -65t-49 -14q-33 5 -47 0t-14 -24q-2 -119 0 -272
q0 -6 -17 -20t-1 -30q16 -15 16 -22q18 -571 22 -581l39 -2q16 -6 63 -12q17 -2 17 -30q0 -27 -11 -73t-32 -53l-158 8zM49 1462h-22q-26 0 -50 -4t-26 2t-2 26t28 60l91 142q35 47 48 54t74 7h68q62 0 76 -7t49 -54l90 -142q27 -38 27 -60t-14 -28q-14 -4 -55 0
q-40 4 -57 4q-18 0 -30 20t-18 46t-31 48t-68 24t-73 -19q-30 -20 -44 -47q-35 -72 -61 -72z" />
    <glyph glyph-name="igrave" unicode="&#xec;" 
d="M106 582v20l23 612q0 74 17 88t100 11l495 -13q45 -2 75 -30t36 -58l8 -26q0 -54 -10 -60t-34 -1t-75 5q-31 4 -77 10t-150 3q-104 -4 -156 -31q-30 -16 -28 -178t26 -174q47 -28 120 32t116 58q194 -6 270 -97t76 -336t-119 -355t-335 -104t-302 78q-86 73 -86 232v2
q0 48 44 100t81 7q27 0 65 -13t52 -188q4 -64 166 -72q98 -4 170 87t71 221q0 255 -311 268q-36 0 -58 -22t-29 -42t-15 -50t-10 -36q-8 -33 -86 -49q-59 -27 -95 8q-35 35 -35 93z" />
    <glyph glyph-name="iacute" unicode="&#xed;" horiz-adv-x="1081" 
d="M100 386q0 114 -6 194l-24 346q10 200 128 330t334 130q156 0 251 -40t149 -126t55 -184q0 -53 -32 -69t-109 -17q-16 -4 -32 0t-43 41q-26 37 -36 107q-8 43 -51 88t-98 45q-219 0 -236 -144q-12 -37 -12 -88l-10 -110q-8 -147 12 -344l6 -82q0 -120 15 -180
q3 -12 24 -37l21 -25q51 -76 151 -76h53q57 -1 80 9q22 10 39 18q61 33 8 426q-3 23 -29 25t-51 -9l-24 -8q-27 2 -70 -5t-61 0t-25 44q0 61 19 77q6 5 39 6t55 5l149 27q74 12 143 -24t70 -95l21 -600q0 -35 -49 -22q-49 14 -62 8q-27 -18 -61 -33t-108 -16t-179 2
q-328 0 -405 264q-9 28 -9 142z" />
    <glyph glyph-name="icircumflex" unicode="&#xee;" horiz-adv-x="1107" 
d="M338 1286v-29l20 -452q252 -6 390 14q28 37 -5 332l-12 115q4 72 45 96t107 -14q90 23 92 -74l47 -1157q2 -70 -14 -86q-16 -15 -72 -19t-71 -2t-31 -1t-25 -2q-20 3 -29 69q27 528 -45 536q-49 6 -108 16t-116 18q-57 7 -161 -21q-13 -36 -2 -387l6 -134q2 -58 -32 -82
t-95 -30l-49 6q-84 8 -98 22t-14 82q8 242 10 533l26 86l-39 526q0 80 24 103t101 0l56 -17q35 -12 61 -13q25 -1 29 -7q4 -5 4 -27z" />
    <glyph glyph-name="idieresis" unicode="&#xef;" horiz-adv-x="1067" 
d="M684 887q2 82 -19 172q-23 90 -51 121q-28 30 -111 30t-101 -11t-33 -52q-16 -41 -17 -205l-2 -436q-2 -121 26 -181t120 -61q59 0 88 9t67 44q25 25 31 433zM528 133q-174 -1 -282 63t-131 177q-13 54 -13 487l-2 148q2 188 100 269t334 81t326 -197q18 -43 36 -228
t6 -405q-11 -220 -67 -308q-56 -87 -307 -87zM379 1411h-23q-109 0 -108 70q0 25 28 65l91 142q35 47 48 54t77 7h67q63 0 75 -6t48 -55l90 -142q27 -38 27 -67t-26 -48t-68 -20q-34 0 -61 86q-9 33 -40 59t-80 27q-96 -172 -145 -172z" />
    <glyph glyph-name="eth" unicode="&#xf0;" horiz-adv-x="2441" 
d="M547 1014q0 -8 30 -8t58 4l31 4v-4l-15 2q5 -2 16 -6l5 -27l47 -12l35 12l159 -53q23 0 41 18l160 -49q0 -12 64 -29q0 8 4 10t11 -9q7 -10 15 -1q10 -28 24 -16t-3 22q4 6 20 7l47 -19l166 -47l371 -76l-6 23l94 -51q1 0 21 4t26 -4q6 -3 0 16l66 66l6 28q37 53 0 66
q0 -1 -8 -19t-4 -28q-4 -12 -45 3t-57 8t48 -71q-16 0 -18 -6q-63 33 -230 53l-10 13q-193 34 -553 112t-491 105l-6 -6q-14 10 -62 16t-63 14l-13 13l-241 47l-35 -13q0 20 -4 23h4l55 237l4 5q14 -2 40 13t42 30l19 16l6 18l323 -90l25 -16q14 -2 102 -20t133 -15
q31 -31 60 -21q8 3 12 15q16 -29 78 -35l23 -2h34q29 -8 41 -16l88 -6q10 2 15 -15l4 -14q2 0 6 10l-14 23q0 2 8 14l28 -41l19 16l102 -28q31 33 39 0q2 0 41 -13q10 27 -6 34t-45 7t-37 7q-94 18 -469 95t-582 111l-6 13l60 22q78 0 88 -12l20 27l-2 45q-2 -2 -4 -5
q-2 -2 -10 -6t-14 4q-29 10 -59 -5t-48 -17l-12 -12q2 6 -4 0q-25 -18 -43 -13q10 7 32 15t36 17q13 9 14 28q57 49 134 79q78 30 144 39t166 5q191 -8 475 -60q362 -61 584 -141q131 -57 190 -105q0 6 5 20t7 22q1 7 -6 22q7 -2 11 4q20 26 -8 33q-7 2 -9 4q-16 37 11 94
l65 -10q0 -8 1 -48t-26 -46q-12 -4 -11 -28t-5 -32q-20 -41 22 -86t44 -67q12 -7 24 -51t17 -56q5 -120 -23 -241l-8 -46l6 -18q-20 14 -27 21q-9 -27 -31 -63t-20 -38q4 0 62 49q-40 -168 -46 -227t-13 -131q-7 -73 -13 -107t-14 -92h6l-4 -94q-7 -1 -14 -1
q-18 -127 -40 -185l-198 -277q-23 -33 -83 -42t-77 -23q-20 -4 -46 18t-38 23q-244 57 -689 180t-654 174q-29 -16 -40 -11t-31 23t-36 23q-115 20 -147 153q2 42 3 85q5 -2 13 -3l111 29q-33 -7 -78 53l-4 28q0 7 6 9l-27 -2q11 -25 -8 -53q-4 22 -7 41l4 68l1 -1l22 23
q41 -8 105 -24t76 -18q12 -3 21 -12t73 -12q18 -8 50 -14t54 -19t84 -20q19 15 66 -10l18 -8q113 -35 148 -35q-8 11 260 -51l88 -21q12 -8 51 -13t47 -16q16 2 58 -10t61 -6q109 -43 141 -43q-22 6 -22 24t10 48l-57 12q-43 -10 -160 37q-247 55 -512 123q-15 0 -45 12
t-52 7q50 -21 85 -40l34 -16q-14 -25 -41 -19t-28 0q-20 15 -43 15l-10 2q-15 8 -69 23t-99 28l-45 10q-6 2 -23 -1t-31 14l-59 10q-41 23 -126 38t-128 30q3 34 4 59q26 -7 65 -17l3 11q10 -6 59 -6q12 -24 65 -24q-29 5 -72 27q-13 4 -47 15t-71 14q2 27 5 58l65 -15l2 6
q39 10 65 -10q18 -5 79 -16q-2 3 -3 8l-119 29q-10 -4 -43 8t-44 13q8 94 28 281t27 312q4 4 7 12t9 13l31 -19l-13 -155q0 -35 13 -62h6q10 -2 59 -16t82 -8q2 -11 24 -13t23 -4q29 6 63 1t48 16v-35zM2380 227l-13 -94q-9 -4 -31 6t-26 13q-3 23 3 50q5 27 7 38
q19 -9 60 -13zM1573 332q0 11 -12 6l-20 9l77 -19l-23 18q0 2 -14 1t-14 9l-43 13q-13 -4 -187 43l-106 24l-64 19q-59 16 -184 44v-14l408 -101q-1 -1 -2 -3q11 -3 23 -7l-7 7l133 -33q0 -1 -1 -3h-1q-4 -1 -8 -4t-15 11l-77 17l1 -3q31 -11 66 -24l6 -6q-4 0 -11 1l15 -9
q10 4 23 2q2 -25 34 -19q31 6 50 0zM1213 510q11 9 11 -3q56 -12 99 -20l72 -12q-11 3 -28 14q-17 4 -29 6q-12 1 -14 3q-3 2 -21 6l-320 77v-12q53 -19 128 -36q7 6 27 -3q21 -9 34 -11t20 -5q7 -2 21 -5v1zM1163 399q-7 0 -1 13l-36 8l-14 -4l-364 84l-31 6l-2 -6
q8 0 14 2l107 -31l26 -14q115 -4 162 -33q12 8 34 -4t32 -6q37 0 71 -13q9 -11 37 -17q28 -5 33 -7q190 -43 235 -70l-147 29q-41 4 -131 29t-139 30q-3 3 -24 9t-30 10q-58 8 -157 35q1 -7 4 -15q-45 2 -54 12l-53 9l107 -31l100 -18q80 -27 242 -58q5 -8 211 -53l67 -12
q-29 -14 11 -15q10 0 18 2l47 -14q2 14 -2 25q4 0 21 5t20 -16l31 -18v-5q13 7 34 5q9 11 19 6q11 -5 20 -3l16 -4q8 -5 13 -16q18 -6 36 -13q5 6 15 12l29 -7l35 -12l1 2h1q0 1 -1 2l5 14q-20 -2 -57 14t-52 16q-39 13 -45 20l-73 6l-4 -7q-30 20 -136 46t-110 30
q-29 -4 -82 14t-78 21q-9 6 -31 6zM1489 168q-10 2 -55 17t-86 14q-5 10 -38 15q-34 5 -44 7l-76 25q12 -15 133 -51l39 -13q12 0 55 -13q44 -12 72 -1zM1016 940q-39 -4 -121 23t-113 26q0 7 -14 3q-14 -5 -24 -8t-12 -5q-3 -2 -5 -2q-14 13 -33 19t-27 10l-1 4h8
q122 -10 200 -27q78 -18 109 -18q10 -25 33 -25zM1542 346q-2 0 -5 -1q-2 -9 -1 -15q9 -2 27 -8t26 0l-16 6q1 3 0 4l-12 6q-1 0 -5 -2t-9 0t-5 10zM1792 145l-47 11l16 -21zM862 1073h-31q-27 31 -24 -6q15 -2 33 -8t39 -4l69 -17q-4 14 -47 23q-13 12 -39 12zM1096 842
q12 0 30 7t17 -11q81 -37 153 -42q72 -4 117 -8t82 -40q57 -23 160 -27q47 -23 229 -57l66 -15q6 -6 14 -6t33 6l-53 29l-99 35q-8 -3 -15 -1t-20 -1q-13 -2 -41 18q-22 3 -54 -1t-58 26q-33 8 -83 16t-77 14l-24 13l-224 28q-2 13 -9 9t-15 4q-77 26 -95 28t-64 14t-62 12
q-16 1 -62 -1q16 12 25 10q-86 27 -273 60l-147 28q-7 -7 -60 6q-96 35 -145 47q-39 -4 -66 13q-10 -3 -25 2t-22 -15q15 -8 49 -13t53 -14t88 -19t93 -17l236 -47q10 -12 63 -10q23 0 12 -15q49 -15 145 -35t109 -24q7 -6 19 -6zM1866 123l-49 24l-2 -18zM848 1137
q-14 14 -8 26l-33 -20zM1952 147q-4 1 -10 5t-22 8t-17 -6q39 -17 49 -7zM1844 270h-3q-18 4 -37 -12l45 -10q5 7 5 12l-11 2q1 3 1 8zM1946 182q10 0 10 6q-57 29 -66 9q46 -15 56 -15zM1837 293q6 0 3 5t-8 17t-17 9q-12 -8 -11 -23zM1663 430q0 -4 2 -12q20 -4 55 -12
t74 -9q31 -15 91 -31t89 -6l-30 17q-8 2 -29 -6l-6 18l-82 14q-27 -4 -41 11l-105 18q10 0 -4 8t-14 -10zM1325 1049q-22 -13 -48 5t-85 23l-21 2q-23 7 -83 19t-74 16l76 -31q47 -4 94 -22q59 -4 71 -12l35 -7q12 -12 28 -5q7 4 7 12zM1952 449q10 14 -10 22t-25 -2l-25 -6
q3 -13 18 -12l30 4q16 2 12 -6zM1438 973q6 18 -19 18q-25 2 -33 -4l5 -2zM971 1475l-88 16l18 -23q31 -16 70 7zM1993 571l-23 15l-18 -8l2 -11q16 -8 39 4zM1698 1262q-4 -2 -13 0t-12 -7l-10 13q-68 12 -333 66t-410 81q119 -35 350 -79t321 -68q17 2 59 -10t48 4z
M1624 1198q8 0 8 2l35 4v23q-17 -4 -33 6t-26 12q23 -8 6 -49q2 2 10 2zM1925 1258q0 -12 2 -15q12 -2 15 9q2 11 10 14q16 -16 15 -34t7 -30h6v66q-4 2 -10 4t-16 11t2 20q34 -11 104 -23t103 -25q14 57 12 78q-58 44 -110 66q-135 57 -250 86q-549 170 -1043 131l16 -31
q-6 -8 -49 4q-10 0 -10 -4l8 -18q-10 -4 -10 -23t8 -47q4 4 1 8q-9 13 18 21q16 -10 17 -48t7 -46l17 77q7 19 35 11t36 -4q46 -20 152 -35t414 -77t423 -83q2 4 1 11t6 11q11 0 24 19q-4 6 -9 3q-15 -9 -15 9q10 0 53 10t65 -16l-53 -31l6 -30q0 -21 -18 -33q10 -4 10 -16z
M1714 1212q0 4 -5 10t-23 -1q0 -11 6 -15t12 -2h8q2 4 2 8zM2056 1008h6l19 -19l6 19l-31 24v-24zM1833 1309q-2 0 -41 12q29 -29 41 -12zM1936 1229q-17 0 -21 2q2 -18 4 -25q14 -14 33 -10q4 2 4 18q-3 15 -20 15zM2247 1108h4q6 20 6 47t12 47q-18 -12 -71 -66t-95 -63
q5 13 21 19t16 28q-61 -55 -59 -71l28 -11q-8 -12 -8 -24l2 -4q-16 -16 -12 -22q4 -5 18 -15q0 -8 -3 -10t-5 1q-6 9 -10 -10l-35 19l6 -60h41q16 23 56 57q39 34 63 66t25 72zM2263 1243l-41 47v-41zM293 1415l-17 -29l-12 17v18zM395 1503l-43 -22q-2 6 4 9t20 7t19 6z
M1392 384l13 -3q-7 7 -13 3zM617 1252q-3 2 -7 1zM1541 347l-3 1zM1688 255h-7l-84 21l3 6q0 -1 10 3q10 5 61 -9t56 -14q92 -31 99 -43v-2l-36 10l-27 9l-2 -2l-64 17q-5 4 -9 4zM1667 354q3 -16 33 -30t37 -15l3 17zM1297 1010l-23 10q-96 6 -131 35q-119 16 -172 37
q-27 -6 -65 11t-66 11l-72 16l45 -28l166 -29q21 -23 41 -15t41 -3q31 0 100 -23q15 -14 61 -16t62 -15q7 6 13 9zM1286 969l-43 20q-29 6 -113 29l-75 16q14 -6 174 -61h45zM1949 321v1l-42 15q-1 -3 -1 -6zM1848 345q3 6 7 11l-30 11l-17 -13zM1855 478l-34 11
q-2 -6 -6 -11t6 -7q22 -7 28 -3t10 11q-1 -1 -4 -1zM1464 956q13 13 26 6l-17 17q-16 -23 -9 -23zM1755 1196l-10 8t-12 4q16 -8 22 -12zM1849 1305q0 -10 -1 -18q1 7 1 18zM127 531q-2 -23 -3 -47l-20 22q3 -22 16 -90l-6 -102q-9 4 -14 16l-8 16l-6 88q4 16 1 34
q-9 54 17 73q10 -5 23 -10zM1263 405l-38 13q-45 18 -143 38t-136 38q-10 2 -43 7t-39 15l-52 5l196 -50l100 -29q36 0 123 -28l31 -8q0 -1 1 -1zM659 553q0 -10 70 -16h25l48 -13q-13 7 -42 13t-43 16q-42 -6 -81 7zM615 566q-30 19 -75 23q24 -6 46 -14q21 -7 29 -9z
M494 596h4q-19 8 -90 27l-27 6q-5 7 -13 5t-8 -3q4 -1 46 -7t69 -30q10 2 19 2zM345 550l50 -13q0 -15 20 -11t30 -12q1 0 3 -1l11 11l172 -41q1 -4 19 -9t29 -8q-11 12 -45 22t-38 14l-179 41q-33 1 -72 7zM501 574q0 -3 21 -5zM1308 380q13 -4 20 -3q-6 7 -20 3zM511 495
q20 -6 37 -12q-4 3 -7 6zM583 477h-13l34 -9q-10 9 -21 9zM704 440q-7 8 -27 11q13 -5 27 -11zM1608 169q0 -18 24 -5q6 33 6 60l-30 6l2 -54q-2 -4 -2 -7zM1724 193v-19l19 6q0 16 -2 22l-19 4q2 -7 2 -13zM1397 626q9 -2 28 -6t46 -11q-39 11 -74 17zM140 691
q-1 -12 -2 -23l-34 8q8 19 36 15zM133 610l-2 -20q-21 6 -33 10v10q16 2 35 0zM1887 505l11 -9q-4 6 -11 9z" />
    <glyph glyph-name="ntilde" unicode="&#xf1;" horiz-adv-x="1067" 
d="M684 887q2 82 -19 172q-23 90 -51 121q-28 30 -111 30t-101 -11t-33 -52q-16 -41 -17 -205l-2 -436q-2 -121 26 -181t120 -61q59 0 88 9t67 44q25 25 31 433zM528 133q-174 -1 -282 63t-131 177q-13 54 -13 487l-2 148q2 188 100 269t334 81t326 -197q18 -43 36 -228
t6 -405q-11 -220 -67 -308q-56 -87 -307 -87zM616 1479q0 -27 -26 -49t-66 -21q-41 0 -53 5t-49 42l-150 148q-43 48 -43 76t25 50t63 21h54q63 0 76 -7t49 -54l92 -144q28 -40 28 -67z" />
    <glyph glyph-name="ograve" unicode="&#xf2;" horiz-adv-x="1116" 
d="M854 473l-35 -70l-31 -28l58 10q-17 30 -4 58q12 28 12 30zM529 264q97 0 130 75t39 179l41 711q3 59 15 81t41 29l49 2q72 0 87 -14t15 -78v-665q0 -210 -52 -283q-19 -29 -63 -74q-109 -115 -307 -114q-276 0 -362 163q-45 90 -45 308v682q0 68 20 87t90 5l54 -10
q66 -12 83 -40t17 -89l-4 -691l-2 -93q0 -66 12 -93q45 -78 142 -78zM840 1677q0 -31 -45 -73l-148 -148q-37 -33 -48 -39t-38 -6q-109 -6 -108 70q0 27 26 65l94 144q7 12 19 30t30 24q18 7 74 7h54q38 1 64 -21t26 -53z" />
    <glyph glyph-name="oacute" unicode="&#xf3;" horiz-adv-x="544" 
d="M97 123q13 0 22 2q8 1 22 23t-4 71q25 545 -20 955q1 14 -11 38t-32 25q-20 0 -48 25q-28 26 -28 54t15 42t71 26q82 -8 121 -22q4 0 32 7q27 7 33 2t26 2t34 7l106 -6q25 0 41 -36t3 -55t-70 -20t-56 -36q-2 -1067 11 -1110l43 -6h47q39 -1 43 -5q16 -16 16 -53
q18 -47 -20 -59l-197 -14l-178 8q-70 0 -89 22q-20 22 -20 54t-10 36l4 2q80 21 93 21z" />
    <glyph glyph-name="ocircumflex" unicode="&#xf4;" horiz-adv-x="20" 
d="M1155 -80h-18q-56 85 -224 269t-218 243q-50 60 -63 62t-20 -2l-6 -7q-76 -98 -274 -313t-244 -281q-70 33 -92 52l-74 75l529 619q20 23 20 35t-39 65t-141 159q-102 107 -121 128q-18 20 -48 44t-43 37t-59 54q-90 82 -90 144l78 65q78 57 98 35q258 -256 500 -539
q14 -8 18 -9t15 10q10 11 42 34t89 87q56 64 91 108q36 43 78 91t153 204l94 24q61 -47 82 -57v-86q-27 -31 -127 -157q-272 -342 -358 -407q-12 -12 -6 -21q5 -9 11 -17q461 -490 547 -648q-47 -74 -92 -92q-28 -8 -88 -8z" />
    <glyph glyph-name="otilde" unicode="&#xf5;" horiz-adv-x="935" 
d="M815 1337q55 0 82 -37t6 -78t-82 -51q-44 22 -57 9q-18 -152 18 -463l15 -119q31 -565 -226 -612q-221 -33 -314 -20t-165 71q-37 27 -53 118t4 136q4 16 72 16l22 2q49 0 76 6t39 0t15 -22t6 -66q3 -49 57 -87t108 -30q56 8 67 30q21 41 21 112q4 37 -4 379t-20 540
q0 17 -28 21t-54 0l-27 -4q-61 20 -83 56t5 65t86 28h414z" />
    <glyph glyph-name="odieresis" unicode="&#xf6;" horiz-adv-x="1064" 
d="M86 336l10 276l-8 172l6 516q0 54 60 56t86 -17q76 8 94 -10q18 -17 19 -69t4 -202t-3 -253q-4 -82 68 24l293 484l12 12q14 25 78 31q63 6 92 11t69 -18q39 -24 35 -55q0 -14 -32 -65q-122 -129 -231 -275q-109 -147 -115 -204q-4 -33 225 -398l78 -123
q119 -201 -17 -243q-32 -9 -86 -2q-59 0 -73 7t-26 25t-68 115q-54 96 -56 102l-164 345q-37 81 -62 52q-13 -15 -12 -156t-10 -335l-2 -69q0 -27 -18 -41q-27 -21 -115 -21q-67 -39 -99 -9t-33 95t1 242z" />
    <glyph glyph-name="divide" unicode="&#xf7;" horiz-adv-x="1146" 
d="M708 1124q-66 0 -99 10q-34 10 -92 40q-57 30 -79 30t-28 -16q-12 -43 -102 -43t-89 61q0 54 69 100t142 46q72 0 158 -38t103 -38t18 8q14 45 108 45t88 -61q-2 -57 -66 -101q-65 -43 -131 -43z" />
    <glyph glyph-name="oslash" unicode="&#xf8;" horiz-adv-x="1146" 
d="M889 1237q-1 -39 -21 -51t-96 -10l-389 6q-150 0 -150 51q0 43 22 54q26 13 160 4t214 -5l139 10q74 6 98 -7t23 -52z" />
    <glyph glyph-name="ugrave" unicode="&#xf9;" horiz-adv-x="1476" 
d="M823 543q21 0 21 63l2 23l178 639q6 20 10 52t15 45t65 9l123 -6q109 -6 133 -24t25 -66v-1174q2 -59 -48 -86q-51 -28 -107 -22t-63 15t-8 75q20 995 -24 995q-4 0 -16 -60t-41 -150t-142 -621l-31 -158q-12 -49 -71 -74t-94 -16q-59 -14 -80 -1q-20 13 -30 41t-9 38
q-246 1026 -295 1026q-37 0 -39 -252t14 -502l15 -252q0 -72 -18 -87t-97 -15h-12q-78 -2 -89 11t-12 89l-4 1157q0 68 41 87t137 16l97 -4q122 0 145 -23q22 -23 31 -49l211 -635q8 -25 32 -65t35 -39z" />
    <glyph glyph-name="uacute" unicode="&#xfa;" horiz-adv-x="1048" 
d="M799 993q-1 -39 -15 -51t-35 -34t-54 -46q-70 -51 -70 -74t24 -45q23 -22 35 -34q12 -13 116 -109t144 -171q41 -75 39 -157q-2 -137 -92 -213q-91 -75 -235 -73t-202 56t-57 157q1 75 97 75t102 -49q2 -5 5 -27q9 -62 53 -75q22 -6 55 -6q61 0 71 162q0 39 -20 63
t-87 72q-67 46 -143 118t-108 120q-33 48 -32 102t19 83q18 30 78 72q60 43 70 50t22 17t19 36q26 94 -26 137t-123 47l-75 6q-38 0 -47 -9q-24 -24 -34 -60q-2 -4 6 -359l14 -624q2 -90 -46 -148t-89 -18q-92 43 -92 118l4 912q2 121 18 170q15 49 63 97t91 56t166 4
q170 -2 272 -89t99 -218v-41z" />
    <glyph glyph-name="ucircumflex" unicode="&#xfb;" horiz-adv-x="1146" 
d="M659 1249q0 27 -43 63q-44 36 -72 36t-50 -34t-23 -73q0 -39 17 -63t39 -21q23 2 59 3q36 2 54 32t19 57zM791 1257q0 -73 -68 -125t-161 -52t-161 52q-67 54 -67 126t67 123q68 53 161 53t161 -52t68 -125z" />
    <glyph glyph-name="udieresis" unicode="&#xfc;" horiz-adv-x="1089" 
d="M715 987q0 115 -53 183t-173 51q-59 16 -108 0q-33 -13 -32 -235t38 -234q46 -10 102 6q226 0 226 229zM940 961q0 -61 -33 -113t-71 -81q-104 -76 -105 -90q0 -22 7 -29q8 -7 18 -17t18 -19q4 -4 30 -26t35 -32q33 -40 42 -120l45 -233q20 -70 17 -124t-60 -69
q-5 -2 -49 -2q-50 0 -92 -4q-41 -4 -54 12q-33 44 -37 106t-6 107q-3 45 -21 97t-46 128t-53 116q-26 40 -74 30q-41 4 -67 -13t-31 -130t3 -217l6 -107q-6 -73 -26 -101t-90 -28q-2 0 -5 -1q-27 -9 -84 -9t-57 41l2 1138q-12 64 18 122q28 61 159 67l245 8q242 8 329 -91
t87 -316zM299 1195q-9 -9 -25 -24l45 5q-17 9 -20 19z" />
    <glyph glyph-name="yacute" unicode="&#xfd;" horiz-adv-x="587" 
d="M391 190q0 -77 45 -77q16 0 38 3t43 5t27 -8q7 -11 9 -51t-11 -54t-91 -16l-52 -2q-85 -4 -111 2t-55 35t-36 38q-26 29 -33 125q14 209 6 407q-8 197 -39 237q-6 6 -25 -9q-18 2 -35 2t-27 -1t-17 0t-11 0q-10 -4 -10 16v26q-2 63 0 68q10 10 88 16q61 -11 69 32
q2 16 -7 58q29 122 137 128q55 4 75 -17q20 -20 21 -78q-2 -12 -5 -27q-3 -14 -6 -54t9 -42q16 -8 47 11q72 1 96 -11t26 -46q1 -34 -2 -49t-20 -19q-18 -4 -42 -8t-50 -13q-41 0 -53 -10q-20 -61 -4 -410l8 -131l-2 -52v-24z" />
    <glyph glyph-name="thorn" unicode="&#xfe;" horiz-adv-x="20" 
d="M762 -127h49v-49q-4 2 -14 4q-9 2 -13 4l-10 5t-9 7q-1 2 -3 4v25zM762 1257v33l-33 -53q18 61 49 61q20 0 20 -19t-13 -22h-23zM201 667q-2 -2 -4 -5l4 18v-13zM201 667q7 10 12 21h25q-4 -29 -8 -33t-29 -8v20zM197 662l-13 -68v53q7 7 13 15z" />
    <glyph glyph-name="ydieresis" unicode="&#xff;" horiz-adv-x="993" 
d="M934 1174q0 -33 -277 -429q-23 -35 -69 -121t-92 -156t-185 -259q74 -33 189 -35t192 10l78 15q80 -1 97 -13t18 -75v-12q0 -57 -49 -86q-20 -11 -48 -11l-499 6q-20 0 -92 -4q-131 -8 -166 51q-47 76 32 189q281 385 502 757q17 27 27 45t19 36q44 83 10 83l-467 -18
q-51 0 -78 18t-29 35l-2 19q0 137 141 129q114 -14 265 -22q151 -9 219 1l141 21q79 8 101 -10t22 -93v-71z" />
    <glyph glyph-name="OE" unicode="&#x152;" horiz-adv-x="512" 
d="M117 -246q-69 0 -91 16t-25 66q-3 49 26 55q28 7 75 7q80 8 76 168q10 571 -18 708q-4 22 -33 21q-29 -2 -45 -3t-27 1q-10 2 -8 10t-2 57t10 53q27 27 99 28t100 -11q73 5 114 -19q42 -24 42 -59l14 -764q4 -150 -80 -242t-227 -92zM406 1225q0 -68 -54 -95t-121 11
q-82 -6 -108 78l-12 43q-20 70 42 108t128 -6q111 -41 125 -90v-49z" />
    <glyph glyph-name="oe" unicode="&#x153;" horiz-adv-x="722" 
d="M392 154q54 0 100 10l45 8q73 0 99 -17t26 -73t-20 -72t-99 -16h-400q-60 0 -74 16q-15 16 -22 26t-18 50q-25 74 16 115q153 153 267 317t91 236q-28 40 -165 4l-52 -15q-154 10 -153 93q0 58 37 80t114 22l383 4q81 0 99 -14t18 -82q6 -26 -7 -60t-73 -134t-111 -181
q-52 -80 -124 -186t-78 -117q47 -14 101 -14z" />
    <glyph glyph-name="Scaron" unicode="&#x160;" 
d="M478 608q-70 0 -90 20t-21 79q-13 25 9 51q40 49 142 69q51 7 90 55t38 124t-44 148q-43 71 -110 67q-119 -4 -150 -43q-4 -4 -27 -24q-43 -37 -45 -107v-91q-30 -40 -74 -38t-84 38t-40 80q-2 162 99 251t303 98t312 -81t113 -272q2 -55 -38 -93t-89 -55t-84 -46
q-66 -55 27 -125q45 -35 95 -70t93 -94t45 -125q2 -202 -120 -310t-341 -116q-213 -12 -319 56t-109 237q-3 23 5 30t36 17t54 27l34 24q69 50 91 27q21 -23 25 -76q5 -53 10 -76q6 -22 22 -46q28 -40 138 -48q111 -8 160 52q48 60 46 158t-27 146q-25 49 -84 74
q-21 8 -91 8z" />
    <glyph glyph-name="scaron" unicode="&#x161;" horiz-adv-x="786" 
d="M338 45q0 -35 -30 -63t-77 -37l-28 -4q-69 -11 -95 35t-26 122v752q0 78 29 95t96 -25q23 6 34 -2t26 -31t35 -37t66 14q44 28 99 62q55 33 96 22q66 -14 102 -90q37 -76 33 -146t-39 -77l-124 -19q-23 -2 -26 16t4 45q7 25 -3 53t-42 37q-78 22 -95 -8q-5 -7 -11 -21
t-17 -28q-11 -15 -9 -62q2 -46 2 -72v-531z" />
    <glyph glyph-name="Ydieresis" unicode="&#x178;" horiz-adv-x="909" 
d="M604 -59q6 41 -26 55q-20 10 -88 12t-160 -10q-76 -10 -84 -100q20 -102 203 -103q88 0 143 35t12 111zM407 846q-76 0 -94 -51q-14 -75 -13 -173t17 -147q23 -59 93 -62q132 -6 138 124q3 61 -1 145q-16 90 -33 115q-31 49 -107 49zM394 -324q-295 0 -310 197
q-2 35 49 84t46 81t-53 64t-50 73q-4 78 36 108q15 12 31 22q39 24 35 74q0 16 -23 29q-71 36 -71 127q-4 190 1 231t41 95t92 83t123 29t118 -12t76 -5q88 152 145 158q28 4 90 -4t68 -29q14 -25 4 -75t-54 -46t-74 -22t-30 -45q2 -59 36 -100t38 -70q18 -150 -10 -297
q-8 -39 -36 -67t-81 -47t-109 -17q-55 2 -88 4l-33 2q-18 0 -63 4t-70 1q-36 -6 -34 -59q4 -75 292 -75q30 0 102 1t120 -48t62 -114q40 -174 7 -212q-37 -53 -160 -88t-263 -35z" />
    <glyph glyph-name="Zcaron" unicode="&#x17d;" horiz-adv-x="907" 
d="M158 -227q0 7 39 42t49 52q59 62 66 83t4 48t-3 43q0 94 -71 294q-72 200 -144 353l-71 152q-14 37 -15 53q0 35 43 52t107 -1q111 8 135 -65l61 -265q70 -254 111 -249q25 4 35 22q10 17 18 73t17 91l82 317q16 58 51 68t89 10t73 -11q18 -11 20 -20q2 -8 2 -15t8 -29
t0 -50q-98 -299 -170 -479q-4 -10 -22 -32t-65 -134t-138 -303l-33 -70q-16 -39 -64 -71t-75 -41q-45 -31 -92 6t-47 76z" />
    <glyph glyph-name="zcaron" unicode="&#x17e;" horiz-adv-x="1009" 
d="M636 783q48 73 45 184t-61 187t-155 46q-70 18 -117 -8q-12 -43 -21 -153q-9 -109 -1 -219t39 -117q53 -12 98 2l18 4q106 2 155 74zM336 407q0 -141 1 -275t-32 -134l-133 -2h-54q-17 0 -27 9q-9 9 -10 15t1 35t2 47l4 1170q0 57 30 71t109 15h283q214 0 322 -93
t111 -290t-109 -303q-66 -59 -136 -86t-202 -29q-91 23 -125 2q-35 -12 -35 -152z" />
    <glyph glyph-name="Euro" unicode="&#x20ac;" 
d="M690 588q0 66 -68 128q-69 60 -141 53q-71 -7 -117 -71t-46 -124t67 -122q68 -62 180 -92q69 26 97 94t28 134zM956 598q0 -62 -52 -124t-58 -113t44 -131t50 -148q0 -170 -122 -267t-337 -98q-100 0 -218 24t-154 52q-17 17 -21 29t-4 53q-18 33 -24 62q-5 29 27 57
q43 37 193 -54q150 -90 225 -90t121 66t46 142t-41 104t-219 72t-271 123q-92 79 -92 200q0 66 70 161q69 95 69 110q0 14 -30 50q-92 111 -90 189q0 145 117 232q119 87 299 87t333 -51q37 -12 49 -29t13 -73v-16q0 -37 -24 -59t-50 -22t-141 35q-4 2 -58 35t-120 33
t-136 -39t-69 -92q0 -33 44 -72q43 -39 69 -48t38 -15t21 -8l135 -35q200 -57 284 -133t84 -199z" />
  </font>
</defs>
</svg>
